G04 #@! TF.FileFunction,Copper,L1,Top,Signal*
%FSLAX46Y46*%
G04 Gerber Fmt 4.6, Leading zero omitted, Abs format (unit mm)*
G04 Created by KiCad (PCBNEW 4.0.0-rc1-stable) date 20-08-2016 17:56:14*
%MOMM*%
G01*
G04 APERTURE LIST*
%ADD10C,0.100000*%
%ADD11R,1.778000X7.620000*%
%ADD12R,0.750000X0.800000*%
%ADD13R,0.800000X0.750000*%
%ADD14R,0.400000X1.100000*%
%ADD15R,1.270000X0.279400*%
%ADD16C,0.600000*%
%ADD17C,0.250000*%
%ADD18C,0.254000*%
G04 APERTURE END LIST*
D10*
D11*
X129540000Y-93980000D03*
X132080000Y-93980000D03*
X134620000Y-93980000D03*
X137160000Y-93980000D03*
X142240000Y-93980000D03*
X144780000Y-93980000D03*
X147320000Y-93980000D03*
X149860000Y-93980000D03*
X152400000Y-93980000D03*
X154940000Y-93980000D03*
X157480000Y-93980000D03*
X160020000Y-93980000D03*
X162560000Y-93980000D03*
X165100000Y-93980000D03*
D12*
X154450000Y-79950000D03*
X154450000Y-81450000D03*
D13*
X140075000Y-68175000D03*
X141575000Y-68175000D03*
D14*
X143745000Y-82606000D03*
X144395000Y-82606000D03*
X145045000Y-82606000D03*
X145695000Y-82606000D03*
X146345000Y-82606000D03*
X146995000Y-82606000D03*
X147645000Y-82606000D03*
X148295000Y-82606000D03*
X148945000Y-82606000D03*
X149595000Y-82606000D03*
X150245000Y-82606000D03*
X150895000Y-82606000D03*
X150895000Y-76906000D03*
X150245000Y-76906000D03*
X149595000Y-76906000D03*
X148945000Y-76906000D03*
X148295000Y-76906000D03*
X147645000Y-76906000D03*
X146995000Y-76906000D03*
X146345000Y-76906000D03*
X145695000Y-76906000D03*
X145045000Y-76906000D03*
X144395000Y-76906000D03*
X143745000Y-76906000D03*
D15*
X137668000Y-59182000D03*
X137668000Y-59690000D03*
X137668000Y-60172600D03*
X137668000Y-60680600D03*
X137668000Y-61188600D03*
X137668000Y-61671200D03*
X137668000Y-62179200D03*
X137668000Y-62687200D03*
X137668000Y-63169800D03*
X137668000Y-63677800D03*
X137668000Y-64185800D03*
X137668000Y-64693800D03*
X137668000Y-65176400D03*
X137668000Y-65684400D03*
X137668000Y-66192400D03*
X137668000Y-66675000D03*
X157099000Y-66675000D03*
X157099000Y-66167000D03*
X157099000Y-65684400D03*
X157099000Y-65176400D03*
X157099000Y-64668400D03*
X157099000Y-64185800D03*
X157099000Y-63677800D03*
X157099000Y-63169800D03*
X157099000Y-62687200D03*
X157099000Y-62179200D03*
X157099000Y-61671200D03*
X157099000Y-61163200D03*
X157099000Y-60680600D03*
X157099000Y-60172600D03*
X157099000Y-59664600D03*
X157099000Y-59182000D03*
D16*
X132050000Y-75700000D03*
X132080000Y-81788000D03*
X135960000Y-80750000D03*
X135330000Y-75730000D03*
X136280000Y-75720000D03*
X136820000Y-80120000D03*
X137690000Y-79470000D03*
X137410000Y-75710000D03*
X138490000Y-78810000D03*
X138500000Y-75680000D03*
X152730000Y-68920000D03*
X152710000Y-70790000D03*
X153370000Y-70160000D03*
X153380000Y-67380000D03*
X154000000Y-69550000D03*
X154010000Y-65820000D03*
X130746500Y-78232000D03*
X130810000Y-83375500D03*
X165100000Y-84836000D03*
X161671000Y-84836000D03*
X161671000Y-80518000D03*
X165100000Y-80518000D03*
X143150000Y-73650000D03*
X156400000Y-72000000D03*
X142850000Y-68200000D03*
X165100000Y-82600000D03*
X161700000Y-82600000D03*
X161700000Y-63860000D03*
X161680000Y-62870000D03*
X161600000Y-61640000D03*
X160900000Y-60990000D03*
X160110000Y-60530000D03*
X150400000Y-84100000D03*
X152600000Y-79925000D03*
X154900000Y-60000000D03*
X154650000Y-68900000D03*
X143700000Y-85600000D03*
X134550000Y-59700000D03*
X135200000Y-85650000D03*
X141300000Y-85600000D03*
X147574000Y-81026000D03*
X150900000Y-64300000D03*
X148700000Y-62100000D03*
X141986000Y-78740000D03*
X133850000Y-60700000D03*
X133350000Y-88646000D03*
X161671000Y-77216000D03*
X157099000Y-73660000D03*
X142319000Y-76906000D03*
X155450000Y-78725000D03*
X140100000Y-69225000D03*
X138325000Y-69200000D03*
X135900000Y-62700000D03*
X129560000Y-76950000D03*
X147325000Y-78175000D03*
X149606000Y-74803000D03*
X150241000Y-75628500D03*
D17*
X129540000Y-93980000D02*
X129540000Y-89916000D01*
X144395000Y-77840000D02*
X144395000Y-76764000D01*
X144175000Y-78070000D02*
X144395000Y-77840000D01*
X132745000Y-78070000D02*
X144175000Y-78070000D01*
X129540000Y-81407000D02*
X132745000Y-78070000D01*
X129540000Y-89535000D02*
X129540000Y-81407000D01*
X129540000Y-89916000D02*
X129540000Y-89535000D01*
X132050000Y-75700000D02*
X132072000Y-75700000D01*
X134620000Y-65980000D02*
X135906200Y-64693800D01*
X134620000Y-73152000D02*
X134620000Y-65980000D01*
X132072000Y-75700000D02*
X134620000Y-73152000D01*
X132080000Y-93980000D02*
X132060000Y-81808000D01*
X135906200Y-64693800D02*
X136893800Y-64693800D01*
X137668000Y-64693800D02*
X136893800Y-64693800D01*
X132060000Y-81808000D02*
X132080000Y-81788000D01*
X145045000Y-82606000D02*
X145045000Y-81845000D01*
X145045000Y-81845000D02*
X144480000Y-81280000D01*
X136490000Y-81280000D02*
X135960000Y-80750000D01*
X144480000Y-81280000D02*
X136490000Y-81280000D01*
X135350000Y-71780000D02*
X135350000Y-75710000D01*
X135350000Y-75710000D02*
X135330000Y-75730000D01*
X135350000Y-71010000D02*
X135350000Y-71780000D01*
X136333600Y-65176400D02*
X137668000Y-65176400D01*
X135350000Y-66160000D02*
X136333600Y-65176400D01*
X135350000Y-71010000D02*
X135350000Y-66160000D01*
X134620000Y-93980000D02*
X134620000Y-89916000D01*
X134620000Y-89916000D02*
X135001000Y-89535000D01*
X139899976Y-87383539D02*
X143816461Y-87383539D01*
X145045000Y-86155000D02*
X145045000Y-82606000D01*
X143816461Y-87383539D02*
X145045000Y-86155000D01*
X137202500Y-87387500D02*
X139899976Y-87383539D01*
X135043500Y-89546500D02*
X137202500Y-87387500D01*
X135001000Y-89535000D02*
X135043500Y-89546500D01*
X145695000Y-82606000D02*
X145695000Y-81695000D01*
X145695000Y-81695000D02*
X144645000Y-80645000D01*
X137345000Y-80645000D02*
X136820000Y-80120000D01*
X144645000Y-80645000D02*
X137345000Y-80645000D01*
X139065000Y-88011000D02*
X144089000Y-88011000D01*
X145695000Y-86405000D02*
X145695000Y-82606000D01*
X144089000Y-88011000D02*
X145695000Y-86405000D01*
X135910000Y-71450000D02*
X135910000Y-75350000D01*
X135910000Y-75350000D02*
X136280000Y-75720000D01*
X136625600Y-65684400D02*
X137668000Y-65684400D01*
X135910000Y-66400000D02*
X136625600Y-65684400D01*
X135910000Y-71450000D02*
X135910000Y-66400000D01*
X137160000Y-93980000D02*
X137160000Y-89916000D01*
X137160000Y-89916000D02*
X139065000Y-88011000D01*
X146345000Y-82606000D02*
X146345000Y-81545000D01*
X146345000Y-81545000D02*
X144810000Y-80010000D01*
X138230000Y-80010000D02*
X137690000Y-79470000D01*
X144810000Y-80010000D02*
X138230000Y-80010000D01*
X146345000Y-81545000D02*
X146345000Y-82606000D01*
X143510000Y-88646000D02*
X144354000Y-88646000D01*
X146345000Y-86655000D02*
X146345000Y-82606000D01*
X144354000Y-88646000D02*
X146345000Y-86655000D01*
X136500000Y-70970000D02*
X136500000Y-74880000D01*
X136500000Y-74880000D02*
X137410000Y-75710000D01*
X136500000Y-69540000D02*
X136500000Y-70970000D01*
X136500000Y-69540000D02*
X136500000Y-66570000D01*
X136500000Y-66570000D02*
X136877600Y-66192400D01*
X136877600Y-66192400D02*
X137668000Y-66192400D01*
X142240000Y-89916000D02*
X143510000Y-88646000D01*
X142240000Y-93980000D02*
X142240000Y-89916000D01*
X146345000Y-81545000D02*
X146345000Y-82606000D01*
X146995000Y-82606000D02*
X146995000Y-81463000D01*
X139055000Y-79375000D02*
X138490000Y-78810000D01*
X144907000Y-79375000D02*
X139055000Y-79375000D01*
X146995000Y-81463000D02*
X144907000Y-79375000D01*
X144798000Y-89898000D02*
X144798000Y-89102000D01*
X146995000Y-86905000D02*
X146995000Y-82606000D01*
X144798000Y-89102000D02*
X146995000Y-86905000D01*
X137220000Y-70050000D02*
X137220000Y-74400000D01*
X137220000Y-70050000D02*
X137220000Y-67123000D01*
X137220000Y-67123000D02*
X137668000Y-66675000D01*
X137220000Y-74400000D02*
X138500000Y-75680000D01*
X144780000Y-89916000D02*
X144798000Y-89898000D01*
X144780000Y-93980000D02*
X144780000Y-89916000D01*
X147320000Y-93980000D02*
X147320000Y-88080000D01*
X147645000Y-87755000D02*
X147645000Y-82606000D01*
X147320000Y-88080000D02*
X147645000Y-87755000D01*
X152050000Y-76400000D02*
X152050000Y-77450000D01*
X152050000Y-76400000D02*
X152050000Y-70530000D01*
X152050000Y-70530000D02*
X155905000Y-66675000D01*
X155905000Y-66675000D02*
X157099000Y-66675000D01*
X152050000Y-77450000D02*
X147645000Y-81855000D01*
X147645000Y-81855000D02*
X147645000Y-82606000D01*
X149860000Y-93980000D02*
X149860000Y-89916000D01*
X149860000Y-89916000D02*
X148295000Y-88351000D01*
X148295000Y-88351000D02*
X148295000Y-82606000D01*
X152690000Y-75800000D02*
X152690000Y-77510000D01*
X148295000Y-81905000D02*
X148295000Y-82606000D01*
X152690000Y-77510000D02*
X148295000Y-81905000D01*
X155483000Y-66167000D02*
X157099000Y-66167000D01*
X152730000Y-68920000D02*
X155483000Y-66167000D01*
X152690000Y-70810000D02*
X152710000Y-70790000D01*
X152690000Y-75800000D02*
X152690000Y-70810000D01*
X152400000Y-93980000D02*
X152400000Y-89900000D01*
X148945000Y-86445000D02*
X148945000Y-82606000D01*
X152400000Y-89900000D02*
X148945000Y-86445000D01*
X153370000Y-76300000D02*
X153370000Y-77530000D01*
X153370000Y-76300000D02*
X153370000Y-70160000D01*
X153380000Y-67380000D02*
X155075600Y-65684400D01*
X155075600Y-65684400D02*
X157099000Y-65684400D01*
X153370000Y-77530000D02*
X148945000Y-81955000D01*
X148945000Y-81955000D02*
X148945000Y-82606000D01*
X157124400Y-65659000D02*
X157099000Y-65684400D01*
X154940000Y-93980000D02*
X154940000Y-89940000D01*
X149595000Y-84595000D02*
X149595000Y-82606000D01*
X154940000Y-89940000D02*
X149595000Y-84595000D01*
X154000000Y-76300000D02*
X154000000Y-77600000D01*
X154000000Y-76300000D02*
X154000000Y-69550000D01*
X154010000Y-65820000D02*
X154653600Y-65176400D01*
X154653600Y-65176400D02*
X157099000Y-65176400D01*
X154000000Y-77600000D02*
X149595000Y-82005000D01*
X149595000Y-82005000D02*
X149595000Y-82606000D01*
X157124400Y-65151000D02*
X157099000Y-65176400D01*
X157480000Y-93980000D02*
X157480000Y-89920000D01*
X157480000Y-89920000D02*
X158600000Y-88800000D01*
X162900000Y-77300000D02*
X158600000Y-73000000D01*
X162900000Y-87700000D02*
X162900000Y-77300000D01*
X161800000Y-88800000D02*
X162900000Y-87700000D01*
X158600000Y-88800000D02*
X161800000Y-88800000D01*
X158600000Y-69360000D02*
X158600000Y-73000000D01*
X158368400Y-64668400D02*
X157099000Y-64668400D01*
X158600000Y-64900000D02*
X158368400Y-64668400D01*
X158600000Y-69360000D02*
X158600000Y-64900000D01*
X160020000Y-89900000D02*
X160020000Y-89880000D01*
X163600000Y-77000000D02*
X159250000Y-72650000D01*
X163600000Y-88000000D02*
X163600000Y-77000000D01*
X162100000Y-89500000D02*
X163600000Y-88000000D01*
X160400000Y-89500000D02*
X162100000Y-89500000D01*
X160020000Y-89880000D02*
X160400000Y-89500000D01*
X160020000Y-89900000D02*
X160020000Y-93980000D01*
X159250000Y-70270000D02*
X159250000Y-72650000D01*
X158825800Y-64185800D02*
X157099000Y-64185800D01*
X159250000Y-64610000D02*
X158825800Y-64185800D01*
X159250000Y-70270000D02*
X159250000Y-64610000D01*
X162560000Y-93980000D02*
X162560000Y-89920000D01*
X162560000Y-89920000D02*
X164300000Y-88180000D01*
X159900000Y-72300000D02*
X159900000Y-71400000D01*
X164300000Y-76700000D02*
X159900000Y-72300000D01*
X164300000Y-88180000D02*
X164300000Y-76700000D01*
X159900000Y-69590000D02*
X159900000Y-71400000D01*
X159267800Y-63677800D02*
X157099000Y-63677800D01*
X159900000Y-64310000D02*
X159267800Y-63677800D01*
X159900000Y-69590000D02*
X159900000Y-64310000D01*
X156337000Y-82606000D02*
X156337000Y-72063000D01*
X156337000Y-72063000D02*
X156400000Y-72000000D01*
X161700000Y-82600000D02*
X161700000Y-84807000D01*
X165100000Y-84836000D02*
X165100000Y-85598000D01*
X161700000Y-84807000D02*
X161671000Y-84836000D01*
X165100000Y-80645000D02*
X165100000Y-80518000D01*
X161671000Y-80518000D02*
X161700000Y-80518000D01*
X161700000Y-80518000D02*
X161671000Y-80518000D01*
X161671000Y-80518000D02*
X161700000Y-80518000D01*
X154450000Y-82606000D02*
X154450000Y-81450000D01*
X141575000Y-68175000D02*
X141575000Y-72050000D01*
X143150000Y-73625000D02*
X143150000Y-73650000D01*
X141575000Y-72050000D02*
X143150000Y-73625000D01*
X141575000Y-68175000D02*
X142850000Y-68200000D01*
X161700000Y-82600000D02*
X161700000Y-80518000D01*
X150895000Y-82606000D02*
X154450000Y-82606000D01*
X154450000Y-82606000D02*
X156337000Y-82606000D01*
X156337000Y-82606000D02*
X161694000Y-82606000D01*
X161700000Y-82600000D02*
X161694000Y-82606000D01*
X165100000Y-93980000D02*
X165100000Y-85598000D01*
X165100000Y-85598000D02*
X165100000Y-82600000D01*
X165100000Y-82600000D02*
X165100000Y-80645000D01*
X165100000Y-80645000D02*
X165100000Y-76400000D01*
X160800000Y-71200000D02*
X160750000Y-71200000D01*
X160750000Y-71250000D02*
X160800000Y-71200000D01*
X160750000Y-72050000D02*
X160750000Y-71250000D01*
X165100000Y-76400000D02*
X160750000Y-72050000D01*
X159859800Y-63169800D02*
X157099000Y-63169800D01*
X160750000Y-64060000D02*
X159859800Y-63169800D01*
X160750000Y-71200000D02*
X160750000Y-64060000D01*
X157099000Y-62687200D02*
X160527200Y-62687200D01*
X160527200Y-62687200D02*
X161700000Y-63860000D01*
X160600000Y-62179200D02*
X160990000Y-62180000D01*
X160990000Y-62180000D02*
X161680000Y-62870000D01*
X160600000Y-62179200D02*
X157099000Y-62179200D01*
X157099000Y-61671200D02*
X161568800Y-61671200D01*
X161568800Y-61671200D02*
X161600000Y-61640000D01*
X160920000Y-61160000D02*
X157099000Y-61163200D01*
X160900000Y-60990000D02*
X160920000Y-61160000D01*
X159959400Y-60680600D02*
X157099000Y-60680600D01*
X160110000Y-60530000D02*
X159959400Y-60680600D01*
X150245000Y-83945000D02*
X150245000Y-82606000D01*
X150400000Y-84100000D02*
X150245000Y-83945000D01*
X154700000Y-76250000D02*
X154650000Y-76250000D01*
X154650000Y-76300000D02*
X154700000Y-76250000D01*
X154650000Y-77875000D02*
X154650000Y-76300000D01*
X152600000Y-79925000D02*
X154650000Y-77875000D01*
X155235400Y-59664600D02*
X157099000Y-59664600D01*
X154900000Y-60000000D02*
X155235400Y-59664600D01*
X154650000Y-76250000D02*
X154650000Y-68900000D01*
X143745000Y-82606000D02*
X143745000Y-85555000D01*
X143745000Y-85555000D02*
X143700000Y-85600000D01*
X135068000Y-59182000D02*
X137668000Y-59182000D01*
X134550000Y-59700000D02*
X135068000Y-59182000D01*
X134550000Y-59700000D02*
X134550000Y-59700000D01*
X141250000Y-85650000D02*
X135200000Y-85650000D01*
X141300000Y-85600000D02*
X141250000Y-85650000D01*
X150895000Y-77705000D02*
X150895000Y-76906000D01*
X147574000Y-81026000D02*
X150895000Y-77705000D01*
X150895000Y-76906000D02*
X150895000Y-64305000D01*
X142600000Y-59690000D02*
X137668000Y-59690000D01*
X150895000Y-64305000D02*
X150900000Y-64300000D01*
X148700000Y-62100000D02*
X146290000Y-59690000D01*
X146290000Y-59690000D02*
X142610000Y-59690000D01*
X142610000Y-59690000D02*
X142600000Y-59700000D01*
X142600000Y-59700000D02*
X142600000Y-59690000D01*
X147574000Y-79248000D02*
X148209000Y-78613000D01*
X146685000Y-79248000D02*
X147574000Y-79248000D01*
X146177000Y-78740000D02*
X146685000Y-79248000D01*
X141986000Y-78740000D02*
X146177000Y-78740000D01*
X148209000Y-78613000D02*
X148209000Y-78486000D01*
X148209000Y-78486000D02*
X148209000Y-78613000D01*
X148209000Y-78613000D02*
X148945000Y-77877000D01*
X148945000Y-77877000D02*
X148945000Y-76906000D01*
X148945000Y-76906000D02*
X148945000Y-63345000D01*
X148945000Y-63345000D02*
X145772600Y-60172600D01*
X145772600Y-60172600D02*
X137668000Y-60172600D01*
X133869400Y-60680600D02*
X137668000Y-60680600D01*
X133850000Y-60700000D02*
X133869400Y-60680600D01*
X139200019Y-86869410D02*
X143530590Y-86869410D01*
X144395000Y-86005000D02*
X144395000Y-82606000D01*
X143530590Y-86869410D02*
X144395000Y-86005000D01*
X135179500Y-86870500D02*
X139200019Y-86869410D01*
X133528500Y-88521500D02*
X135179500Y-86870500D01*
X133477000Y-88519000D02*
X133528500Y-88521500D01*
X133350000Y-88646000D02*
X133477000Y-88519000D01*
X158115000Y-73660000D02*
X161671000Y-77216000D01*
X157099000Y-73660000D02*
X158115000Y-73660000D01*
X141175000Y-76906000D02*
X142319000Y-76906000D01*
X155500000Y-78900000D02*
X154450000Y-79950000D01*
X155500000Y-78775000D02*
X155500000Y-78900000D01*
X155450000Y-78725000D02*
X155500000Y-78775000D01*
X140075000Y-68175000D02*
X140075000Y-69200000D01*
X140075000Y-69200000D02*
X140100000Y-69225000D01*
X138300000Y-74000000D02*
X138325000Y-69200000D01*
X139400000Y-75100000D02*
X138300000Y-74000000D01*
X139400000Y-76906000D02*
X139400000Y-75100000D01*
X135912800Y-62687200D02*
X137668000Y-62687200D01*
X135900000Y-62700000D02*
X135912800Y-62687200D01*
X129604000Y-76906000D02*
X139400000Y-76906000D01*
X139400000Y-76906000D02*
X141175000Y-76906000D01*
X141175000Y-76906000D02*
X143745000Y-76906000D01*
X129560000Y-76950000D02*
X129604000Y-76906000D01*
X146995000Y-76906000D02*
X146995000Y-77845000D01*
X146995000Y-77845000D02*
X147325000Y-78175000D01*
X147000000Y-65100000D02*
X147000000Y-64700000D01*
X144479200Y-62179200D02*
X137668000Y-62179200D01*
X147000000Y-64700000D02*
X144479200Y-62179200D01*
X147000000Y-65350000D02*
X146995000Y-65350000D01*
X147000000Y-65100000D02*
X147000000Y-65350000D01*
X146995000Y-76906000D02*
X146995000Y-65350000D01*
X149606000Y-74803000D02*
X149595000Y-74803000D01*
X149595000Y-74803000D02*
X149606000Y-74803000D01*
X149606000Y-74803000D02*
X149595000Y-74803000D01*
X149606000Y-75692000D02*
X149595000Y-75692000D01*
X149595000Y-75692000D02*
X149606000Y-75692000D01*
X149606000Y-75692000D02*
X149595000Y-75692000D01*
X149595000Y-76906000D02*
X149595000Y-75692000D01*
X149595000Y-75692000D02*
X149595000Y-74803000D01*
X149595000Y-74803000D02*
X149595000Y-62335000D01*
X152748000Y-59182000D02*
X157099000Y-59182000D01*
X149595000Y-62335000D02*
X152748000Y-59182000D01*
X150241000Y-75628500D02*
X150245000Y-75628500D01*
X150241000Y-75628500D02*
X150245000Y-75628500D01*
X150241000Y-74930000D02*
X150245000Y-74930000D01*
X150245000Y-74930000D02*
X150241000Y-74930000D01*
X150241000Y-74930000D02*
X150245000Y-74930000D01*
X150245000Y-65400000D02*
X150245000Y-63805000D01*
X155977400Y-60172600D02*
X157099000Y-60172600D01*
X153450000Y-62700000D02*
X155977400Y-60172600D01*
X151350000Y-62700000D02*
X153450000Y-62700000D01*
X150245000Y-63805000D02*
X151350000Y-62700000D01*
X150245000Y-76906000D02*
X150245000Y-75628500D01*
X150245000Y-75628500D02*
X150245000Y-74930000D01*
X150245000Y-74930000D02*
X150245000Y-65400000D01*
X148295000Y-64900000D02*
X148295000Y-64145000D01*
X148295000Y-64145000D02*
X145338600Y-61188600D01*
X145338600Y-61188600D02*
X137668000Y-61188600D01*
X148295000Y-76906000D02*
X148295000Y-64900000D01*
X147645000Y-65400000D02*
X147645000Y-64445000D01*
X147645000Y-64445000D02*
X144871200Y-61671200D01*
X144871200Y-61671200D02*
X137668000Y-61671200D01*
X147645000Y-76906000D02*
X147645000Y-65400000D01*
X146345000Y-66400000D02*
X146345000Y-64965000D01*
X146345000Y-64965000D02*
X144549800Y-63169800D01*
X144549800Y-63169800D02*
X137668000Y-63169800D01*
X146345000Y-76906000D02*
X146345000Y-66400000D01*
X145695000Y-66300000D02*
X145695000Y-65195000D01*
X144177800Y-63677800D02*
X137668000Y-63677800D01*
X145695000Y-65195000D02*
X144177800Y-63677800D01*
X145695000Y-76906000D02*
X145695000Y-66300000D01*
X145045000Y-66100000D02*
X145045000Y-65545000D01*
X143685800Y-64185800D02*
X137668000Y-64185800D01*
X145045000Y-65545000D02*
X143685800Y-64185800D01*
X145045000Y-76906000D02*
X145045000Y-66100000D01*
D18*
G36*
X167004500Y-64769500D02*
X165100000Y-64769500D01*
X165038612Y-64781711D01*
X164976021Y-64781711D01*
X163761000Y-65023393D01*
X163531915Y-65118283D01*
X162501871Y-65806537D01*
X162326537Y-65981871D01*
X161638283Y-67011915D01*
X161543393Y-67241000D01*
X161301711Y-68456020D01*
X161301712Y-68580000D01*
X161301711Y-68703980D01*
X161543393Y-69919000D01*
X161632796Y-70134838D01*
X161638283Y-70148085D01*
X162326537Y-71178129D01*
X162501871Y-71353463D01*
X163531915Y-72041717D01*
X163761000Y-72136607D01*
X164976021Y-72378289D01*
X165038612Y-72378289D01*
X165100000Y-72390500D01*
X167004500Y-72390500D01*
X167004500Y-89789000D01*
X166506026Y-89789000D01*
X166348698Y-89631673D01*
X166115309Y-89535000D01*
X165385750Y-89535000D01*
X165227000Y-89693750D01*
X165227000Y-89789000D01*
X164973000Y-89789000D01*
X164973000Y-89693750D01*
X164814250Y-89535000D01*
X164084691Y-89535000D01*
X163973918Y-89580884D01*
X164837401Y-88717401D01*
X165002148Y-88470839D01*
X165060000Y-88180000D01*
X165060000Y-76700000D01*
X165002148Y-76409161D01*
X164837401Y-76162599D01*
X160660000Y-71985198D01*
X160660000Y-64310000D01*
X160602148Y-64019161D01*
X160437401Y-63772599D01*
X160112002Y-63447200D01*
X160212398Y-63447200D01*
X160764878Y-63999680D01*
X160764838Y-64045167D01*
X160906883Y-64388943D01*
X161169673Y-64652192D01*
X161513201Y-64794838D01*
X161885167Y-64795162D01*
X162228943Y-64653117D01*
X162492192Y-64390327D01*
X162634838Y-64046799D01*
X162635162Y-63674833D01*
X162497027Y-63340519D01*
X162614838Y-63056799D01*
X162615162Y-62684833D01*
X162473117Y-62341057D01*
X162347360Y-62215081D01*
X162392192Y-62170327D01*
X162534838Y-61826799D01*
X162535162Y-61454833D01*
X162393117Y-61111057D01*
X162130327Y-60847808D01*
X161795466Y-60708761D01*
X161693117Y-60461057D01*
X161430327Y-60197808D01*
X161086799Y-60055162D01*
X160925415Y-60055021D01*
X160903117Y-60001057D01*
X160640327Y-59737808D01*
X160296799Y-59595162D01*
X159924833Y-59594838D01*
X159581057Y-59736883D01*
X159397019Y-59920600D01*
X158360309Y-59920600D01*
X158359143Y-59914404D01*
X158381440Y-59804300D01*
X158381440Y-59524900D01*
X158361621Y-59419570D01*
X158381440Y-59321700D01*
X158381440Y-59042300D01*
X158337162Y-58806983D01*
X158198090Y-58590859D01*
X157985890Y-58445869D01*
X157734000Y-58394860D01*
X156464000Y-58394860D01*
X156319764Y-58422000D01*
X152748000Y-58422000D01*
X152457160Y-58479852D01*
X152210599Y-58644599D01*
X149388720Y-61466478D01*
X149230327Y-61307808D01*
X148886799Y-61165162D01*
X148839923Y-61165121D01*
X146827401Y-59152599D01*
X146580839Y-58987852D01*
X146290000Y-58930000D01*
X142610000Y-58930000D01*
X142605000Y-58930995D01*
X142600000Y-58930000D01*
X138929309Y-58930000D01*
X138906162Y-58806983D01*
X138767090Y-58590859D01*
X138554890Y-58445869D01*
X138303000Y-58394860D01*
X137033000Y-58394860D01*
X136888764Y-58422000D01*
X135068000Y-58422000D01*
X134777161Y-58479852D01*
X134530599Y-58644599D01*
X134410320Y-58764878D01*
X134364833Y-58764838D01*
X134021057Y-58906883D01*
X133757808Y-59169673D01*
X133615162Y-59513201D01*
X133614925Y-59785460D01*
X133321057Y-59906883D01*
X133057808Y-60169673D01*
X132915162Y-60513201D01*
X132914838Y-60885167D01*
X133056883Y-61228943D01*
X133319673Y-61492192D01*
X133663201Y-61634838D01*
X134035167Y-61635162D01*
X134378943Y-61493117D01*
X134431552Y-61440600D01*
X136403968Y-61440600D01*
X136385560Y-61531500D01*
X136385560Y-61810900D01*
X136401546Y-61895857D01*
X136086799Y-61765162D01*
X135714833Y-61764838D01*
X135371057Y-61906883D01*
X135107808Y-62169673D01*
X134965162Y-62513201D01*
X134964838Y-62885167D01*
X135106883Y-63228943D01*
X135369673Y-63492192D01*
X135713201Y-63634838D01*
X136085167Y-63635162D01*
X136391540Y-63508572D01*
X136385560Y-63538100D01*
X136385560Y-63817500D01*
X136407443Y-63933800D01*
X135906200Y-63933800D01*
X135615361Y-63991652D01*
X135459434Y-64095839D01*
X135368799Y-64156399D01*
X134082599Y-65442599D01*
X133917852Y-65689161D01*
X133860000Y-65980000D01*
X133860000Y-72837198D01*
X131932301Y-74764897D01*
X131864833Y-74764838D01*
X131521057Y-74906883D01*
X131257808Y-75169673D01*
X131115162Y-75513201D01*
X131114838Y-75885167D01*
X131222612Y-76146000D01*
X130061890Y-76146000D01*
X129746799Y-76015162D01*
X129374833Y-76014838D01*
X129031057Y-76156883D01*
X128767808Y-76419673D01*
X128625162Y-76763201D01*
X128624838Y-77135167D01*
X128766883Y-77478943D01*
X129029673Y-77742192D01*
X129373201Y-77884838D01*
X129745167Y-77885162D01*
X130088943Y-77743117D01*
X130166195Y-77666000D01*
X132079260Y-77666000D01*
X128991867Y-80880549D01*
X128916038Y-80999147D01*
X128837852Y-81116161D01*
X128836330Y-81123812D01*
X128832128Y-81130384D01*
X128807462Y-81268941D01*
X128780000Y-81407000D01*
X128780000Y-89522560D01*
X128651000Y-89522560D01*
X128415683Y-89566838D01*
X128199559Y-89705910D01*
X128142786Y-89789000D01*
X127635500Y-89789000D01*
X127635500Y-72390500D01*
X129540000Y-72390500D01*
X129601389Y-72378289D01*
X129663980Y-72378289D01*
X130879000Y-72136607D01*
X131108085Y-72041717D01*
X132138129Y-71353463D01*
X132313463Y-71178129D01*
X133001717Y-70148085D01*
X133096607Y-69919000D01*
X133338289Y-68703979D01*
X133338289Y-68456019D01*
X133096607Y-67241000D01*
X133081103Y-67203569D01*
X133001717Y-67011915D01*
X132313463Y-65981871D01*
X132138129Y-65806537D01*
X131108085Y-65118283D01*
X130879000Y-65023393D01*
X129663980Y-64781711D01*
X129601389Y-64781711D01*
X129540000Y-64769500D01*
X127635500Y-64769500D01*
X127635500Y-57785500D01*
X167004500Y-57785500D01*
X167004500Y-64769500D01*
X167004500Y-64769500D01*
G37*
X167004500Y-64769500D02*
X165100000Y-64769500D01*
X165038612Y-64781711D01*
X164976021Y-64781711D01*
X163761000Y-65023393D01*
X163531915Y-65118283D01*
X162501871Y-65806537D01*
X162326537Y-65981871D01*
X161638283Y-67011915D01*
X161543393Y-67241000D01*
X161301711Y-68456020D01*
X161301712Y-68580000D01*
X161301711Y-68703980D01*
X161543393Y-69919000D01*
X161632796Y-70134838D01*
X161638283Y-70148085D01*
X162326537Y-71178129D01*
X162501871Y-71353463D01*
X163531915Y-72041717D01*
X163761000Y-72136607D01*
X164976021Y-72378289D01*
X165038612Y-72378289D01*
X165100000Y-72390500D01*
X167004500Y-72390500D01*
X167004500Y-89789000D01*
X166506026Y-89789000D01*
X166348698Y-89631673D01*
X166115309Y-89535000D01*
X165385750Y-89535000D01*
X165227000Y-89693750D01*
X165227000Y-89789000D01*
X164973000Y-89789000D01*
X164973000Y-89693750D01*
X164814250Y-89535000D01*
X164084691Y-89535000D01*
X163973918Y-89580884D01*
X164837401Y-88717401D01*
X165002148Y-88470839D01*
X165060000Y-88180000D01*
X165060000Y-76700000D01*
X165002148Y-76409161D01*
X164837401Y-76162599D01*
X160660000Y-71985198D01*
X160660000Y-64310000D01*
X160602148Y-64019161D01*
X160437401Y-63772599D01*
X160112002Y-63447200D01*
X160212398Y-63447200D01*
X160764878Y-63999680D01*
X160764838Y-64045167D01*
X160906883Y-64388943D01*
X161169673Y-64652192D01*
X161513201Y-64794838D01*
X161885167Y-64795162D01*
X162228943Y-64653117D01*
X162492192Y-64390327D01*
X162634838Y-64046799D01*
X162635162Y-63674833D01*
X162497027Y-63340519D01*
X162614838Y-63056799D01*
X162615162Y-62684833D01*
X162473117Y-62341057D01*
X162347360Y-62215081D01*
X162392192Y-62170327D01*
X162534838Y-61826799D01*
X162535162Y-61454833D01*
X162393117Y-61111057D01*
X162130327Y-60847808D01*
X161795466Y-60708761D01*
X161693117Y-60461057D01*
X161430327Y-60197808D01*
X161086799Y-60055162D01*
X160925415Y-60055021D01*
X160903117Y-60001057D01*
X160640327Y-59737808D01*
X160296799Y-59595162D01*
X159924833Y-59594838D01*
X159581057Y-59736883D01*
X159397019Y-59920600D01*
X158360309Y-59920600D01*
X158359143Y-59914404D01*
X158381440Y-59804300D01*
X158381440Y-59524900D01*
X158361621Y-59419570D01*
X158381440Y-59321700D01*
X158381440Y-59042300D01*
X158337162Y-58806983D01*
X158198090Y-58590859D01*
X157985890Y-58445869D01*
X157734000Y-58394860D01*
X156464000Y-58394860D01*
X156319764Y-58422000D01*
X152748000Y-58422000D01*
X152457160Y-58479852D01*
X152210599Y-58644599D01*
X149388720Y-61466478D01*
X149230327Y-61307808D01*
X148886799Y-61165162D01*
X148839923Y-61165121D01*
X146827401Y-59152599D01*
X146580839Y-58987852D01*
X146290000Y-58930000D01*
X142610000Y-58930000D01*
X142605000Y-58930995D01*
X142600000Y-58930000D01*
X138929309Y-58930000D01*
X138906162Y-58806983D01*
X138767090Y-58590859D01*
X138554890Y-58445869D01*
X138303000Y-58394860D01*
X137033000Y-58394860D01*
X136888764Y-58422000D01*
X135068000Y-58422000D01*
X134777161Y-58479852D01*
X134530599Y-58644599D01*
X134410320Y-58764878D01*
X134364833Y-58764838D01*
X134021057Y-58906883D01*
X133757808Y-59169673D01*
X133615162Y-59513201D01*
X133614925Y-59785460D01*
X133321057Y-59906883D01*
X133057808Y-60169673D01*
X132915162Y-60513201D01*
X132914838Y-60885167D01*
X133056883Y-61228943D01*
X133319673Y-61492192D01*
X133663201Y-61634838D01*
X134035167Y-61635162D01*
X134378943Y-61493117D01*
X134431552Y-61440600D01*
X136403968Y-61440600D01*
X136385560Y-61531500D01*
X136385560Y-61810900D01*
X136401546Y-61895857D01*
X136086799Y-61765162D01*
X135714833Y-61764838D01*
X135371057Y-61906883D01*
X135107808Y-62169673D01*
X134965162Y-62513201D01*
X134964838Y-62885167D01*
X135106883Y-63228943D01*
X135369673Y-63492192D01*
X135713201Y-63634838D01*
X136085167Y-63635162D01*
X136391540Y-63508572D01*
X136385560Y-63538100D01*
X136385560Y-63817500D01*
X136407443Y-63933800D01*
X135906200Y-63933800D01*
X135615361Y-63991652D01*
X135459434Y-64095839D01*
X135368799Y-64156399D01*
X134082599Y-65442599D01*
X133917852Y-65689161D01*
X133860000Y-65980000D01*
X133860000Y-72837198D01*
X131932301Y-74764897D01*
X131864833Y-74764838D01*
X131521057Y-74906883D01*
X131257808Y-75169673D01*
X131115162Y-75513201D01*
X131114838Y-75885167D01*
X131222612Y-76146000D01*
X130061890Y-76146000D01*
X129746799Y-76015162D01*
X129374833Y-76014838D01*
X129031057Y-76156883D01*
X128767808Y-76419673D01*
X128625162Y-76763201D01*
X128624838Y-77135167D01*
X128766883Y-77478943D01*
X129029673Y-77742192D01*
X129373201Y-77884838D01*
X129745167Y-77885162D01*
X130088943Y-77743117D01*
X130166195Y-77666000D01*
X132079260Y-77666000D01*
X128991867Y-80880549D01*
X128916038Y-80999147D01*
X128837852Y-81116161D01*
X128836330Y-81123812D01*
X128832128Y-81130384D01*
X128807462Y-81268941D01*
X128780000Y-81407000D01*
X128780000Y-89522560D01*
X128651000Y-89522560D01*
X128415683Y-89566838D01*
X128199559Y-89705910D01*
X128142786Y-89789000D01*
X127635500Y-89789000D01*
X127635500Y-72390500D01*
X129540000Y-72390500D01*
X129601389Y-72378289D01*
X129663980Y-72378289D01*
X130879000Y-72136607D01*
X131108085Y-72041717D01*
X132138129Y-71353463D01*
X132313463Y-71178129D01*
X133001717Y-70148085D01*
X133096607Y-69919000D01*
X133338289Y-68703979D01*
X133338289Y-68456019D01*
X133096607Y-67241000D01*
X133081103Y-67203569D01*
X133001717Y-67011915D01*
X132313463Y-65981871D01*
X132138129Y-65806537D01*
X131108085Y-65118283D01*
X130879000Y-65023393D01*
X129663980Y-64781711D01*
X129601389Y-64781711D01*
X129540000Y-64769500D01*
X127635500Y-64769500D01*
X127635500Y-57785500D01*
X167004500Y-57785500D01*
X167004500Y-64769500D01*
G36*
X156464000Y-67462140D02*
X157734000Y-67462140D01*
X157840000Y-67442195D01*
X157840000Y-72900000D01*
X157661463Y-72900000D01*
X157629327Y-72867808D01*
X157285799Y-72725162D01*
X156913833Y-72724838D01*
X156570057Y-72866883D01*
X156306808Y-73129673D01*
X156164162Y-73473201D01*
X156163838Y-73845167D01*
X156305883Y-74188943D01*
X156568673Y-74452192D01*
X156912201Y-74594838D01*
X157284167Y-74595162D01*
X157627943Y-74453117D01*
X157661118Y-74420000D01*
X157800198Y-74420000D01*
X160735878Y-77355680D01*
X160735838Y-77401167D01*
X160877883Y-77744943D01*
X161140673Y-78008192D01*
X161484201Y-78150838D01*
X161856167Y-78151162D01*
X162140000Y-78033885D01*
X162140000Y-87385198D01*
X161485198Y-88040000D01*
X158600000Y-88040000D01*
X158309160Y-88097852D01*
X158062599Y-88262599D01*
X156942599Y-89382599D01*
X156849080Y-89522560D01*
X156591000Y-89522560D01*
X156355683Y-89566838D01*
X156209093Y-89661166D01*
X156080890Y-89573569D01*
X155829000Y-89522560D01*
X155557556Y-89522560D01*
X155477401Y-89402598D01*
X150948448Y-84873646D01*
X151192192Y-84630327D01*
X151334838Y-84286799D01*
X151335162Y-83914833D01*
X151274835Y-83768829D01*
X151454699Y-83694327D01*
X151633327Y-83515698D01*
X151730000Y-83282309D01*
X151730000Y-82891750D01*
X151571250Y-82733000D01*
X151092440Y-82733000D01*
X151092440Y-82479000D01*
X151571250Y-82479000D01*
X151730000Y-82320250D01*
X151730000Y-81929691D01*
X151649667Y-81735750D01*
X153440000Y-81735750D01*
X153440000Y-81976309D01*
X153536673Y-82209698D01*
X153715301Y-82388327D01*
X153948690Y-82485000D01*
X154164250Y-82485000D01*
X154323000Y-82326250D01*
X154323000Y-81577000D01*
X154577000Y-81577000D01*
X154577000Y-82326250D01*
X154735750Y-82485000D01*
X154951310Y-82485000D01*
X155184699Y-82388327D01*
X155363327Y-82209698D01*
X155460000Y-81976309D01*
X155460000Y-81735750D01*
X155301250Y-81577000D01*
X154577000Y-81577000D01*
X154323000Y-81577000D01*
X153598750Y-81577000D01*
X153440000Y-81735750D01*
X151649667Y-81735750D01*
X151633327Y-81696302D01*
X151454699Y-81517673D01*
X151244285Y-81430517D01*
X152013690Y-80661112D01*
X152069673Y-80717192D01*
X152413201Y-80859838D01*
X152785167Y-80860162D01*
X153128943Y-80718117D01*
X153392192Y-80455327D01*
X153430169Y-80363868D01*
X153471838Y-80585317D01*
X153538329Y-80688646D01*
X153536673Y-80690302D01*
X153440000Y-80923691D01*
X153440000Y-81164250D01*
X153598750Y-81323000D01*
X154323000Y-81323000D01*
X154323000Y-81303000D01*
X154577000Y-81303000D01*
X154577000Y-81323000D01*
X155301250Y-81323000D01*
X155460000Y-81164250D01*
X155460000Y-80923691D01*
X155363327Y-80690302D01*
X155361957Y-80688932D01*
X155421431Y-80601890D01*
X155472440Y-80350000D01*
X155472440Y-80002362D01*
X155941012Y-79533790D01*
X155978943Y-79518117D01*
X156242192Y-79255327D01*
X156384838Y-78911799D01*
X156385162Y-78539833D01*
X156243117Y-78196057D01*
X155980327Y-77932808D01*
X155636799Y-77790162D01*
X155410000Y-77789964D01*
X155410000Y-76501365D01*
X155460000Y-76250000D01*
X155410000Y-75998634D01*
X155410000Y-69462463D01*
X155442192Y-69430327D01*
X155584838Y-69086799D01*
X155585162Y-68714833D01*
X155443117Y-68371057D01*
X155363501Y-68291301D01*
X156219802Y-67435000D01*
X156329979Y-67435000D01*
X156464000Y-67462140D01*
X156464000Y-67462140D01*
G37*
X156464000Y-67462140D02*
X157734000Y-67462140D01*
X157840000Y-67442195D01*
X157840000Y-72900000D01*
X157661463Y-72900000D01*
X157629327Y-72867808D01*
X157285799Y-72725162D01*
X156913833Y-72724838D01*
X156570057Y-72866883D01*
X156306808Y-73129673D01*
X156164162Y-73473201D01*
X156163838Y-73845167D01*
X156305883Y-74188943D01*
X156568673Y-74452192D01*
X156912201Y-74594838D01*
X157284167Y-74595162D01*
X157627943Y-74453117D01*
X157661118Y-74420000D01*
X157800198Y-74420000D01*
X160735878Y-77355680D01*
X160735838Y-77401167D01*
X160877883Y-77744943D01*
X161140673Y-78008192D01*
X161484201Y-78150838D01*
X161856167Y-78151162D01*
X162140000Y-78033885D01*
X162140000Y-87385198D01*
X161485198Y-88040000D01*
X158600000Y-88040000D01*
X158309160Y-88097852D01*
X158062599Y-88262599D01*
X156942599Y-89382599D01*
X156849080Y-89522560D01*
X156591000Y-89522560D01*
X156355683Y-89566838D01*
X156209093Y-89661166D01*
X156080890Y-89573569D01*
X155829000Y-89522560D01*
X155557556Y-89522560D01*
X155477401Y-89402598D01*
X150948448Y-84873646D01*
X151192192Y-84630327D01*
X151334838Y-84286799D01*
X151335162Y-83914833D01*
X151274835Y-83768829D01*
X151454699Y-83694327D01*
X151633327Y-83515698D01*
X151730000Y-83282309D01*
X151730000Y-82891750D01*
X151571250Y-82733000D01*
X151092440Y-82733000D01*
X151092440Y-82479000D01*
X151571250Y-82479000D01*
X151730000Y-82320250D01*
X151730000Y-81929691D01*
X151649667Y-81735750D01*
X153440000Y-81735750D01*
X153440000Y-81976309D01*
X153536673Y-82209698D01*
X153715301Y-82388327D01*
X153948690Y-82485000D01*
X154164250Y-82485000D01*
X154323000Y-82326250D01*
X154323000Y-81577000D01*
X154577000Y-81577000D01*
X154577000Y-82326250D01*
X154735750Y-82485000D01*
X154951310Y-82485000D01*
X155184699Y-82388327D01*
X155363327Y-82209698D01*
X155460000Y-81976309D01*
X155460000Y-81735750D01*
X155301250Y-81577000D01*
X154577000Y-81577000D01*
X154323000Y-81577000D01*
X153598750Y-81577000D01*
X153440000Y-81735750D01*
X151649667Y-81735750D01*
X151633327Y-81696302D01*
X151454699Y-81517673D01*
X151244285Y-81430517D01*
X152013690Y-80661112D01*
X152069673Y-80717192D01*
X152413201Y-80859838D01*
X152785167Y-80860162D01*
X153128943Y-80718117D01*
X153392192Y-80455327D01*
X153430169Y-80363868D01*
X153471838Y-80585317D01*
X153538329Y-80688646D01*
X153536673Y-80690302D01*
X153440000Y-80923691D01*
X153440000Y-81164250D01*
X153598750Y-81323000D01*
X154323000Y-81323000D01*
X154323000Y-81303000D01*
X154577000Y-81303000D01*
X154577000Y-81323000D01*
X155301250Y-81323000D01*
X155460000Y-81164250D01*
X155460000Y-80923691D01*
X155363327Y-80690302D01*
X155361957Y-80688932D01*
X155421431Y-80601890D01*
X155472440Y-80350000D01*
X155472440Y-80002362D01*
X155941012Y-79533790D01*
X155978943Y-79518117D01*
X156242192Y-79255327D01*
X156384838Y-78911799D01*
X156385162Y-78539833D01*
X156243117Y-78196057D01*
X155980327Y-77932808D01*
X155636799Y-77790162D01*
X155410000Y-77789964D01*
X155410000Y-76501365D01*
X155460000Y-76250000D01*
X155410000Y-75998634D01*
X155410000Y-69462463D01*
X155442192Y-69430327D01*
X155584838Y-69086799D01*
X155585162Y-68714833D01*
X155443117Y-68371057D01*
X155363501Y-68291301D01*
X156219802Y-67435000D01*
X156329979Y-67435000D01*
X156464000Y-67462140D01*
G36*
X136897808Y-78939673D02*
X136795948Y-79184978D01*
X136634833Y-79184838D01*
X136291057Y-79326883D01*
X136027808Y-79589673D01*
X135934253Y-79814977D01*
X135774833Y-79814838D01*
X135431057Y-79956883D01*
X135167808Y-80219673D01*
X135025162Y-80563201D01*
X135024838Y-80935167D01*
X135166883Y-81278943D01*
X135429673Y-81542192D01*
X135773201Y-81684838D01*
X135820077Y-81684879D01*
X135952599Y-81817401D01*
X136199160Y-81982148D01*
X136490000Y-82040000D01*
X142900800Y-82040000D01*
X142897560Y-82056000D01*
X142897560Y-83156000D01*
X142941838Y-83391317D01*
X142985000Y-83458393D01*
X142985000Y-84992616D01*
X142907808Y-85069673D01*
X142765162Y-85413201D01*
X142764838Y-85785167D01*
X142898812Y-86109410D01*
X142100878Y-86109410D01*
X142234838Y-85786799D01*
X142235162Y-85414833D01*
X142093117Y-85071057D01*
X141830327Y-84807808D01*
X141486799Y-84665162D01*
X141114833Y-84664838D01*
X140771057Y-84806883D01*
X140687795Y-84890000D01*
X135762463Y-84890000D01*
X135730327Y-84857808D01*
X135386799Y-84715162D01*
X135014833Y-84714838D01*
X134671057Y-84856883D01*
X134407808Y-85119673D01*
X134265162Y-85463201D01*
X134264838Y-85835167D01*
X134406883Y-86178943D01*
X134601399Y-86373799D01*
X133264273Y-87710925D01*
X133164833Y-87710838D01*
X132829927Y-87849218D01*
X132820924Y-82369506D01*
X132872192Y-82318327D01*
X133014838Y-81974799D01*
X133015162Y-81602833D01*
X132873117Y-81259057D01*
X132610327Y-80995808D01*
X132266799Y-80853162D01*
X131894833Y-80852838D01*
X131551057Y-80994883D01*
X131287808Y-81257673D01*
X131145162Y-81601201D01*
X131144838Y-81973167D01*
X131286883Y-82316943D01*
X131300858Y-82330943D01*
X131312675Y-89522560D01*
X131191000Y-89522560D01*
X130955683Y-89566838D01*
X130809093Y-89661166D01*
X130680890Y-89573569D01*
X130429000Y-89522560D01*
X130300000Y-89522560D01*
X130300000Y-81712858D01*
X133068822Y-78830000D01*
X137007673Y-78830000D01*
X136897808Y-78939673D01*
X136897808Y-78939673D01*
G37*
X136897808Y-78939673D02*
X136795948Y-79184978D01*
X136634833Y-79184838D01*
X136291057Y-79326883D01*
X136027808Y-79589673D01*
X135934253Y-79814977D01*
X135774833Y-79814838D01*
X135431057Y-79956883D01*
X135167808Y-80219673D01*
X135025162Y-80563201D01*
X135024838Y-80935167D01*
X135166883Y-81278943D01*
X135429673Y-81542192D01*
X135773201Y-81684838D01*
X135820077Y-81684879D01*
X135952599Y-81817401D01*
X136199160Y-81982148D01*
X136490000Y-82040000D01*
X142900800Y-82040000D01*
X142897560Y-82056000D01*
X142897560Y-83156000D01*
X142941838Y-83391317D01*
X142985000Y-83458393D01*
X142985000Y-84992616D01*
X142907808Y-85069673D01*
X142765162Y-85413201D01*
X142764838Y-85785167D01*
X142898812Y-86109410D01*
X142100878Y-86109410D01*
X142234838Y-85786799D01*
X142235162Y-85414833D01*
X142093117Y-85071057D01*
X141830327Y-84807808D01*
X141486799Y-84665162D01*
X141114833Y-84664838D01*
X140771057Y-84806883D01*
X140687795Y-84890000D01*
X135762463Y-84890000D01*
X135730327Y-84857808D01*
X135386799Y-84715162D01*
X135014833Y-84714838D01*
X134671057Y-84856883D01*
X134407808Y-85119673D01*
X134265162Y-85463201D01*
X134264838Y-85835167D01*
X134406883Y-86178943D01*
X134601399Y-86373799D01*
X133264273Y-87710925D01*
X133164833Y-87710838D01*
X132829927Y-87849218D01*
X132820924Y-82369506D01*
X132872192Y-82318327D01*
X133014838Y-81974799D01*
X133015162Y-81602833D01*
X132873117Y-81259057D01*
X132610327Y-80995808D01*
X132266799Y-80853162D01*
X131894833Y-80852838D01*
X131551057Y-80994883D01*
X131287808Y-81257673D01*
X131145162Y-81601201D01*
X131144838Y-81973167D01*
X131286883Y-82316943D01*
X131300858Y-82330943D01*
X131312675Y-89522560D01*
X131191000Y-89522560D01*
X130955683Y-89566838D01*
X130809093Y-89661166D01*
X130680890Y-89573569D01*
X130429000Y-89522560D01*
X130300000Y-89522560D01*
X130300000Y-81712858D01*
X133068822Y-78830000D01*
X137007673Y-78830000D01*
X136897808Y-78939673D01*
G36*
X144285000Y-65859802D02*
X144285000Y-75708560D01*
X144195000Y-75708560D01*
X144065411Y-75732944D01*
X143945000Y-75708560D01*
X143545000Y-75708560D01*
X143309683Y-75752838D01*
X143093559Y-75891910D01*
X142948569Y-76104110D01*
X142940086Y-76146000D01*
X142881463Y-76146000D01*
X142849327Y-76113808D01*
X142505799Y-75971162D01*
X142133833Y-75970838D01*
X141790057Y-76112883D01*
X141756882Y-76146000D01*
X140160000Y-76146000D01*
X140160000Y-75100000D01*
X140102148Y-74809161D01*
X139937401Y-74562599D01*
X139061642Y-73686840D01*
X139082066Y-69765392D01*
X139117192Y-69730327D01*
X139207381Y-69513129D01*
X139306883Y-69753943D01*
X139569673Y-70017192D01*
X139913201Y-70159838D01*
X140285167Y-70160162D01*
X140628943Y-70018117D01*
X140892192Y-69755327D01*
X141034838Y-69411799D01*
X141035040Y-69179346D01*
X141048691Y-69185000D01*
X141289250Y-69185000D01*
X141448000Y-69026250D01*
X141448000Y-68302000D01*
X141702000Y-68302000D01*
X141702000Y-69026250D01*
X141860750Y-69185000D01*
X142101309Y-69185000D01*
X142334698Y-69088327D01*
X142513327Y-68909699D01*
X142610000Y-68676310D01*
X142610000Y-68460750D01*
X142451250Y-68302000D01*
X141702000Y-68302000D01*
X141448000Y-68302000D01*
X141428000Y-68302000D01*
X141428000Y-68048000D01*
X141448000Y-68048000D01*
X141448000Y-67323750D01*
X141702000Y-67323750D01*
X141702000Y-68048000D01*
X142451250Y-68048000D01*
X142610000Y-67889250D01*
X142610000Y-67673690D01*
X142513327Y-67440301D01*
X142334698Y-67261673D01*
X142101309Y-67165000D01*
X141860750Y-67165000D01*
X141702000Y-67323750D01*
X141448000Y-67323750D01*
X141289250Y-67165000D01*
X141048691Y-67165000D01*
X140815302Y-67261673D01*
X140813932Y-67263043D01*
X140726890Y-67203569D01*
X140475000Y-67152560D01*
X139675000Y-67152560D01*
X139439683Y-67196838D01*
X139223559Y-67335910D01*
X139078569Y-67548110D01*
X139027560Y-67800000D01*
X139027560Y-68550000D01*
X139034595Y-68587389D01*
X138855327Y-68407808D01*
X138511799Y-68265162D01*
X138139833Y-68264838D01*
X137980000Y-68330879D01*
X137980000Y-67462140D01*
X138303000Y-67462140D01*
X138538317Y-67417862D01*
X138754441Y-67278790D01*
X138899431Y-67066590D01*
X138950440Y-66814700D01*
X138950440Y-66535300D01*
X138930621Y-66429970D01*
X138950440Y-66332100D01*
X138950440Y-66052700D01*
X138928143Y-65934204D01*
X138950440Y-65824100D01*
X138950440Y-65544700D01*
X138928143Y-65426204D01*
X138950440Y-65316100D01*
X138950440Y-65036700D01*
X138933336Y-64945800D01*
X143370998Y-64945800D01*
X144285000Y-65859802D01*
X144285000Y-65859802D01*
G37*
X144285000Y-65859802D02*
X144285000Y-75708560D01*
X144195000Y-75708560D01*
X144065411Y-75732944D01*
X143945000Y-75708560D01*
X143545000Y-75708560D01*
X143309683Y-75752838D01*
X143093559Y-75891910D01*
X142948569Y-76104110D01*
X142940086Y-76146000D01*
X142881463Y-76146000D01*
X142849327Y-76113808D01*
X142505799Y-75971162D01*
X142133833Y-75970838D01*
X141790057Y-76112883D01*
X141756882Y-76146000D01*
X140160000Y-76146000D01*
X140160000Y-75100000D01*
X140102148Y-74809161D01*
X139937401Y-74562599D01*
X139061642Y-73686840D01*
X139082066Y-69765392D01*
X139117192Y-69730327D01*
X139207381Y-69513129D01*
X139306883Y-69753943D01*
X139569673Y-70017192D01*
X139913201Y-70159838D01*
X140285167Y-70160162D01*
X140628943Y-70018117D01*
X140892192Y-69755327D01*
X141034838Y-69411799D01*
X141035040Y-69179346D01*
X141048691Y-69185000D01*
X141289250Y-69185000D01*
X141448000Y-69026250D01*
X141448000Y-68302000D01*
X141702000Y-68302000D01*
X141702000Y-69026250D01*
X141860750Y-69185000D01*
X142101309Y-69185000D01*
X142334698Y-69088327D01*
X142513327Y-68909699D01*
X142610000Y-68676310D01*
X142610000Y-68460750D01*
X142451250Y-68302000D01*
X141702000Y-68302000D01*
X141448000Y-68302000D01*
X141428000Y-68302000D01*
X141428000Y-68048000D01*
X141448000Y-68048000D01*
X141448000Y-67323750D01*
X141702000Y-67323750D01*
X141702000Y-68048000D01*
X142451250Y-68048000D01*
X142610000Y-67889250D01*
X142610000Y-67673690D01*
X142513327Y-67440301D01*
X142334698Y-67261673D01*
X142101309Y-67165000D01*
X141860750Y-67165000D01*
X141702000Y-67323750D01*
X141448000Y-67323750D01*
X141289250Y-67165000D01*
X141048691Y-67165000D01*
X140815302Y-67261673D01*
X140813932Y-67263043D01*
X140726890Y-67203569D01*
X140475000Y-67152560D01*
X139675000Y-67152560D01*
X139439683Y-67196838D01*
X139223559Y-67335910D01*
X139078569Y-67548110D01*
X139027560Y-67800000D01*
X139027560Y-68550000D01*
X139034595Y-68587389D01*
X138855327Y-68407808D01*
X138511799Y-68265162D01*
X138139833Y-68264838D01*
X137980000Y-68330879D01*
X137980000Y-67462140D01*
X138303000Y-67462140D01*
X138538317Y-67417862D01*
X138754441Y-67278790D01*
X138899431Y-67066590D01*
X138950440Y-66814700D01*
X138950440Y-66535300D01*
X138930621Y-66429970D01*
X138950440Y-66332100D01*
X138950440Y-66052700D01*
X138928143Y-65934204D01*
X138950440Y-65824100D01*
X138950440Y-65544700D01*
X138928143Y-65426204D01*
X138950440Y-65316100D01*
X138950440Y-65036700D01*
X138933336Y-64945800D01*
X143370998Y-64945800D01*
X144285000Y-65859802D01*
M02*
