M48
;DRILL file {KiCad 4.0.0-rc1-stable} date 20-08-2016 17:56:25
;FORMAT={2:4/ absolute / inch / suppress trailing zeros}
FMAT,2
INCH,LZ
T1C0.016
%
G90
G05
M72
T1
X051008Y-030295
X051475Y-0308
X0515Y-032825
X051988Y-029803
X052Y-0322
X0525Y-0349
X052697Y-023898
X052972Y-023504
X053228Y-03372
X05328Y-029815
X053504Y-024685
X053528Y-031791
X053654Y-029811
X053866Y-031543
X054098Y-029807
X054209Y-031287
X054459Y-027244
X054524Y-031028
X054528Y-029795
X055157Y-027254
X05563Y-033701
X0559Y-031
X056031Y-030278
X05624Y-02685
X056358Y-028996
X056575Y-033701
X058002Y-030778
X0581Y-0319
X058543Y-024449
X0589Y-02945
X05915Y-029775
X059213Y-03311
X059409Y-025315
X060079Y-031467
X060122Y-02787
X06013Y-027134
X060382Y-027622
X060386Y-026528
X06063Y-027382
X060634Y-025913
X060886Y-027126
X060984Y-023622
X061201Y-030994
X061575Y-028346
X06185Y-029
X063035Y-023831
X063346Y-024012
X063622Y-024268
X06365Y-0304
X06365Y-0317
X06365Y-0334
X063654Y-024752
X063661Y-025142
X063661Y-03252
X065Y-0317
X065Y-03252
X065Y-0334
T0
M30
