G04 #@! TF.FileFunction,Copper,L2,Bot,Signal*
%FSLAX46Y46*%
G04 Gerber Fmt 4.6, Leading zero omitted, Abs format (unit mm)*
G04 Created by KiCad (PCBNEW 4.0.0-rc1-stable) date 20-08-2016 17:56:14*
%MOMM*%
G01*
G04 APERTURE LIST*
%ADD10C,0.100000*%
%ADD11R,1.778000X7.620000*%
%ADD12R,0.797560X0.797560*%
%ADD13R,0.900000X0.500000*%
%ADD14C,0.600000*%
%ADD15C,0.250000*%
%ADD16C,0.254000*%
G04 APERTURE END LIST*
D10*
D11*
X165100000Y-93980000D03*
X162560000Y-93980000D03*
X160020000Y-93980000D03*
X157480000Y-93980000D03*
X154940000Y-93980000D03*
X152400000Y-93980000D03*
X149860000Y-93980000D03*
X147320000Y-93980000D03*
X144780000Y-93980000D03*
X142240000Y-93980000D03*
X137160000Y-93980000D03*
X134620000Y-93980000D03*
X132080000Y-93980000D03*
X129540000Y-93980000D03*
D12*
X144400000Y-72150700D03*
X144400000Y-73649300D03*
X146367500Y-72148700D03*
X146367500Y-73647300D03*
X148272500Y-72148700D03*
X148272500Y-73647300D03*
X150250000Y-72150700D03*
X150250000Y-73649300D03*
D13*
X146367500Y-69227000D03*
X146367500Y-70727000D03*
X150241000Y-69227000D03*
X150241000Y-70727000D03*
X144399000Y-69227000D03*
X144399000Y-70727000D03*
X148272500Y-69227000D03*
X148272500Y-70727000D03*
D14*
X132050000Y-75700000D03*
X132080000Y-81788000D03*
X135960000Y-80750000D03*
X135330000Y-75730000D03*
X136280000Y-75720000D03*
X136820000Y-80120000D03*
X137690000Y-79470000D03*
X137410000Y-75710000D03*
X138490000Y-78810000D03*
X138500000Y-75680000D03*
X152730000Y-68920000D03*
X152710000Y-70790000D03*
X153370000Y-70160000D03*
X153380000Y-67380000D03*
X154000000Y-69550000D03*
X154010000Y-65820000D03*
X130746500Y-78232000D03*
X130810000Y-83375500D03*
X165100000Y-84836000D03*
X161671000Y-84836000D03*
X161671000Y-80518000D03*
X165100000Y-80518000D03*
X143150000Y-73650000D03*
X156400000Y-72000000D03*
X142850000Y-68200000D03*
X165100000Y-82600000D03*
X161700000Y-82600000D03*
X161700000Y-63860000D03*
X161680000Y-62870000D03*
X161600000Y-61640000D03*
X160900000Y-60990000D03*
X160110000Y-60530000D03*
X150400000Y-84100000D03*
X152600000Y-79925000D03*
X154900000Y-60000000D03*
X154650000Y-68900000D03*
X143700000Y-85600000D03*
X134550000Y-59700000D03*
X135200000Y-85650000D03*
X141300000Y-85600000D03*
X147574000Y-81026000D03*
X150900000Y-64300000D03*
X148700000Y-62100000D03*
X141986000Y-78740000D03*
X133850000Y-60700000D03*
X133350000Y-88646000D03*
X161671000Y-77216000D03*
X157099000Y-73660000D03*
X142319000Y-76906000D03*
X155450000Y-78725000D03*
X140100000Y-69225000D03*
X138325000Y-69200000D03*
X135900000Y-62700000D03*
X129560000Y-76950000D03*
X147325000Y-78175000D03*
X149606000Y-74803000D03*
X150241000Y-75628500D03*
D15*
X132030000Y-81738000D02*
X132050000Y-75700000D01*
X132080000Y-81788000D02*
X132030000Y-81738000D01*
X135930000Y-80750000D02*
X135960000Y-80750000D01*
X135300000Y-80120000D02*
X135930000Y-80750000D01*
X135300000Y-75760000D02*
X135300000Y-80120000D01*
X135330000Y-75730000D02*
X135300000Y-75760000D01*
X136280000Y-75720000D02*
X136280000Y-79580000D01*
X136280000Y-79580000D02*
X136820000Y-80120000D01*
X137410000Y-75710000D02*
X137392047Y-79039580D01*
X137392047Y-79039580D02*
X137690000Y-79470000D01*
X138490000Y-78810000D02*
X138500000Y-75680000D01*
X152730000Y-70770000D02*
X152730000Y-68920000D01*
X152710000Y-70790000D02*
X152730000Y-70770000D01*
X153370000Y-70160000D02*
X153370000Y-67400000D01*
X153370000Y-67400000D02*
X153380000Y-67390000D01*
X153380000Y-67390000D02*
X153380000Y-67380000D01*
X154000000Y-69550000D02*
X154010000Y-69540000D01*
X154010000Y-69540000D02*
X154010000Y-65820000D01*
X130810000Y-83375500D02*
X130810000Y-78295500D01*
X130810000Y-78295500D02*
X130746500Y-78232000D01*
X165100000Y-84836000D02*
X161671000Y-84836000D01*
X165100000Y-80518000D02*
X161671000Y-80518000D01*
X143150700Y-73649300D02*
X144400000Y-73649300D01*
X143150000Y-73650000D02*
X143150700Y-73649300D01*
X155150000Y-72000000D02*
X152750000Y-72000000D01*
X155150000Y-72000000D02*
X156400000Y-72000000D01*
X147550000Y-68200000D02*
X142850000Y-68200000D01*
X152750000Y-72000000D02*
X151800000Y-71050000D01*
X151800000Y-71050000D02*
X151800000Y-68950000D01*
X151800000Y-68950000D02*
X151050000Y-68200000D01*
X151050000Y-68200000D02*
X147550000Y-68200000D01*
X161700000Y-82600000D02*
X165100000Y-82600000D01*
X160559963Y-68299835D02*
X160559963Y-86959963D01*
X164250000Y-89100000D02*
X165100000Y-89950000D01*
X162700000Y-89100000D02*
X164250000Y-89100000D01*
X160559963Y-86959963D02*
X162700000Y-89100000D01*
X165100000Y-89950000D02*
X165100000Y-93980000D01*
X161700000Y-63860000D02*
X161700000Y-63870000D01*
X161700000Y-63870000D02*
X161700000Y-63970000D01*
X160570000Y-66300000D02*
X160570000Y-65100000D01*
X160559963Y-68299835D02*
X160570000Y-66310000D01*
X165100000Y-89950000D02*
X165100000Y-93980000D01*
X160570000Y-66310000D02*
X160570000Y-66300000D01*
X161700000Y-63970000D02*
X160570000Y-65100000D01*
X161700000Y-63870000D02*
X161691674Y-63878326D01*
X159900000Y-70100000D02*
X159900000Y-87300000D01*
X159900000Y-87300000D02*
X162560000Y-89960000D01*
X161210000Y-63340000D02*
X159900000Y-64650000D01*
X161680000Y-62870000D02*
X161210000Y-63340000D01*
X159900000Y-66580000D02*
X159900000Y-66050000D01*
X159900000Y-66050000D02*
X159900000Y-64650000D01*
X162560000Y-93980000D02*
X162560000Y-89960000D01*
X159900000Y-70100000D02*
X159900000Y-66580000D01*
X159250000Y-87900000D02*
X159250000Y-88750000D01*
X160020000Y-89520000D02*
X160020000Y-93980000D01*
X159250000Y-88750000D02*
X160020000Y-89520000D01*
X159250000Y-70400000D02*
X159250000Y-87900000D01*
X159250000Y-65840000D02*
X159250000Y-66360000D01*
X159240530Y-64069890D02*
X159250000Y-65840000D01*
X161600000Y-61640000D02*
X159240530Y-64069890D01*
X161600000Y-61640000D02*
X161600000Y-61640000D01*
X159250000Y-70400000D02*
X159250000Y-66360000D01*
X158600000Y-70477380D02*
X158600000Y-88780000D01*
X158600000Y-88780000D02*
X157480000Y-89900000D01*
X157480000Y-93980000D02*
X157480000Y-89900000D01*
X160900000Y-60990000D02*
X160900000Y-60990000D01*
X158602428Y-63313060D02*
X160900000Y-60990000D01*
X158600000Y-65550000D02*
X158602428Y-63313060D01*
X158600000Y-70477380D02*
X158600000Y-65550000D01*
X157950000Y-70500240D02*
X157950000Y-86890000D01*
X157950000Y-86890000D02*
X154940000Y-89900000D01*
X154940000Y-93980000D02*
X154940000Y-89900000D01*
X157950000Y-62690000D02*
X160110000Y-60530000D01*
X157950000Y-70500240D02*
X157950000Y-62690000D01*
X152400000Y-93980000D02*
X152400000Y-88600000D01*
X150400000Y-86600000D02*
X150400000Y-84100000D01*
X152400000Y-88600000D02*
X150400000Y-86600000D01*
X149600000Y-83500000D02*
X149600000Y-82000000D01*
X149600000Y-82000000D02*
X151675000Y-79925000D01*
X151675000Y-79925000D02*
X152600000Y-79925000D01*
X154850000Y-60000000D02*
X154900000Y-60000000D01*
X154650000Y-60200000D02*
X154850000Y-60000000D01*
X154650000Y-62700000D02*
X154650000Y-60200000D01*
X154650000Y-68900000D02*
X154650000Y-62700000D01*
X149860000Y-93980000D02*
X149860000Y-88660000D01*
X149860000Y-88660000D02*
X149600000Y-88400000D01*
X149600000Y-88400000D02*
X149600000Y-83500000D01*
X147320000Y-89220000D02*
X147320000Y-93980000D01*
X143700000Y-85600000D02*
X147320000Y-89220000D01*
X144780000Y-93980000D02*
X144780000Y-89120000D01*
X134550000Y-85000000D02*
X134550000Y-59700000D01*
X135200000Y-85650000D02*
X134550000Y-85000000D01*
X141300000Y-85640000D02*
X141300000Y-85600000D01*
X144780000Y-89120000D02*
X141300000Y-85640000D01*
X140050000Y-85725000D02*
X140050000Y-85121000D01*
X144145000Y-81026000D02*
X147574000Y-81026000D01*
X140050000Y-85121000D02*
X144145000Y-81026000D01*
X142240000Y-93980000D02*
X142240000Y-89040000D01*
X142240000Y-89040000D02*
X140050000Y-86850000D01*
X140050000Y-86850000D02*
X140050000Y-85725000D01*
X150900000Y-64300000D02*
X148700000Y-62100000D01*
X137150000Y-85090000D02*
X137150000Y-83576000D01*
X137150000Y-83576000D02*
X141986000Y-78740000D01*
X137150000Y-86460000D02*
X137150000Y-85090000D01*
X137150000Y-86460000D02*
X137150000Y-86460000D01*
X137150000Y-86460000D02*
X137160000Y-86460000D01*
X137160000Y-93980000D02*
X137160000Y-86460000D01*
X133836102Y-63600000D02*
X133836102Y-60713898D01*
X133836102Y-60713898D02*
X133850000Y-60700000D01*
X133836102Y-78899989D02*
X133836102Y-63600000D01*
X134620000Y-93980000D02*
X134620000Y-86890000D01*
X133850000Y-86120000D02*
X133836102Y-78899989D01*
X134620000Y-86890000D02*
X133850000Y-86120000D01*
X132080000Y-93980000D02*
X132080000Y-89916000D01*
X132080000Y-89916000D02*
X133350000Y-88646000D01*
X155450000Y-78725000D02*
X155463000Y-78725000D01*
X157099000Y-77089000D02*
X157099000Y-73660000D01*
X155463000Y-78725000D02*
X157099000Y-77089000D01*
X153162000Y-78825000D02*
X151426000Y-78825000D01*
X151426000Y-78825000D02*
X146304000Y-83947000D01*
X154686000Y-78825000D02*
X153162000Y-78825000D01*
X153162000Y-78825000D02*
X149775000Y-78825000D01*
X143518000Y-78105000D02*
X142319000Y-76906000D01*
X145669000Y-78105000D02*
X143518000Y-78105000D01*
X147701000Y-79248000D02*
X145669000Y-78105000D01*
X149352000Y-79248000D02*
X147701000Y-79248000D01*
X149775000Y-78825000D02*
X149352000Y-79248000D01*
X148300000Y-69200000D02*
X150214000Y-69200000D01*
X150214000Y-69200000D02*
X150241000Y-69227000D01*
X138325000Y-69200000D02*
X140075000Y-69200000D01*
X140075000Y-69200000D02*
X140100000Y-69225000D01*
X155350000Y-78825000D02*
X155450000Y-78725000D01*
X154686000Y-78825000D02*
X155350000Y-78825000D01*
X140125000Y-69200000D02*
X148300000Y-69200000D01*
X140100000Y-69225000D02*
X140125000Y-69200000D01*
X138325000Y-69200000D02*
X138300000Y-65500000D01*
X138300000Y-65500000D02*
X136700000Y-63900000D01*
X135900000Y-63100000D02*
X135900000Y-62700000D01*
X136700000Y-63900000D02*
X135900000Y-63100000D01*
X129540000Y-93980000D02*
X129540000Y-76970000D01*
X129540000Y-76970000D02*
X129560000Y-76950000D01*
X151099300Y-73649300D02*
X150250000Y-73649300D01*
X151450000Y-74000000D02*
X151099300Y-73649300D01*
X151450000Y-76225000D02*
X151450000Y-74000000D01*
X149525000Y-78150000D02*
X151450000Y-76225000D01*
X147350000Y-78150000D02*
X149525000Y-78150000D01*
X147325000Y-78175000D02*
X147350000Y-78150000D01*
X148272500Y-73647300D02*
X148272500Y-74168000D01*
X148907500Y-74803000D02*
X149606000Y-74803000D01*
X148272500Y-74168000D02*
X148907500Y-74803000D01*
X146367500Y-73647300D02*
X146367500Y-74930000D01*
X147066000Y-75628500D02*
X150241000Y-75628500D01*
X146367500Y-74930000D02*
X147066000Y-75628500D01*
X144400000Y-72150700D02*
X144400000Y-70700000D01*
X146350000Y-70773000D02*
X146304000Y-70727000D01*
X146350000Y-72150700D02*
X146350000Y-70773000D01*
X148300000Y-72150700D02*
X148300000Y-70700000D01*
X150250000Y-70736000D02*
X150241000Y-70727000D01*
X150250000Y-72150700D02*
X150250000Y-70736000D01*
D16*
G36*
X133076102Y-78899989D02*
X133076247Y-78900719D01*
X133076103Y-78901452D01*
X133090001Y-86121463D01*
X133119094Y-86266263D01*
X133147852Y-86410839D01*
X133148266Y-86411459D01*
X133148413Y-86412190D01*
X133230654Y-86534762D01*
X133312599Y-86657401D01*
X133860000Y-87204802D01*
X133860000Y-87845367D01*
X133536799Y-87711162D01*
X133164833Y-87710838D01*
X132821057Y-87852883D01*
X132557808Y-88115673D01*
X132415162Y-88459201D01*
X132415121Y-88506077D01*
X131542599Y-89378599D01*
X131446408Y-89522560D01*
X131191000Y-89522560D01*
X130955683Y-89566838D01*
X130814629Y-89657604D01*
X130788698Y-89631673D01*
X130555309Y-89535000D01*
X129825750Y-89535000D01*
X129667000Y-89693750D01*
X129667000Y-89789000D01*
X129413000Y-89789000D01*
X129413000Y-89693750D01*
X129254250Y-89535000D01*
X128524691Y-89535000D01*
X128291302Y-89631673D01*
X128133974Y-89789000D01*
X127635500Y-89789000D01*
X127635500Y-78417167D01*
X129811338Y-78417167D01*
X129953383Y-78760943D01*
X130050000Y-78857729D01*
X130050000Y-82813037D01*
X130017808Y-82845173D01*
X129875162Y-83188701D01*
X129874838Y-83560667D01*
X130016883Y-83904443D01*
X130279673Y-84167692D01*
X130623201Y-84310338D01*
X130995167Y-84310662D01*
X131338943Y-84168617D01*
X131602192Y-83905827D01*
X131744838Y-83562299D01*
X131745162Y-83190333D01*
X131603117Y-82846557D01*
X131570000Y-82813382D01*
X131570000Y-82588633D01*
X131893201Y-82722838D01*
X132265167Y-82723162D01*
X132608943Y-82581117D01*
X132872192Y-82318327D01*
X133014838Y-81974799D01*
X133015162Y-81602833D01*
X132873117Y-81259057D01*
X132791860Y-81177658D01*
X132808135Y-76264325D01*
X132842192Y-76230327D01*
X132984838Y-75886799D01*
X132985162Y-75514833D01*
X132843117Y-75171057D01*
X132580327Y-74907808D01*
X132236799Y-74765162D01*
X131864833Y-74764838D01*
X131521057Y-74906883D01*
X131257808Y-75169673D01*
X131115162Y-75513201D01*
X131114838Y-75885167D01*
X131256883Y-76228943D01*
X131288140Y-76260254D01*
X131284208Y-77447202D01*
X131276827Y-77439808D01*
X130933299Y-77297162D01*
X130561333Y-77296838D01*
X130217557Y-77438883D01*
X129954308Y-77701673D01*
X129811662Y-78045201D01*
X129811338Y-78417167D01*
X127635500Y-78417167D01*
X127635500Y-72390500D01*
X129540000Y-72390500D01*
X129601389Y-72378289D01*
X129663980Y-72378289D01*
X130879000Y-72136607D01*
X131108085Y-72041717D01*
X132138129Y-71353463D01*
X132313463Y-71178129D01*
X133001717Y-70148085D01*
X133076102Y-69968504D01*
X133076102Y-78899989D01*
X133076102Y-78899989D01*
G37*
X133076102Y-78899989D02*
X133076247Y-78900719D01*
X133076103Y-78901452D01*
X133090001Y-86121463D01*
X133119094Y-86266263D01*
X133147852Y-86410839D01*
X133148266Y-86411459D01*
X133148413Y-86412190D01*
X133230654Y-86534762D01*
X133312599Y-86657401D01*
X133860000Y-87204802D01*
X133860000Y-87845367D01*
X133536799Y-87711162D01*
X133164833Y-87710838D01*
X132821057Y-87852883D01*
X132557808Y-88115673D01*
X132415162Y-88459201D01*
X132415121Y-88506077D01*
X131542599Y-89378599D01*
X131446408Y-89522560D01*
X131191000Y-89522560D01*
X130955683Y-89566838D01*
X130814629Y-89657604D01*
X130788698Y-89631673D01*
X130555309Y-89535000D01*
X129825750Y-89535000D01*
X129667000Y-89693750D01*
X129667000Y-89789000D01*
X129413000Y-89789000D01*
X129413000Y-89693750D01*
X129254250Y-89535000D01*
X128524691Y-89535000D01*
X128291302Y-89631673D01*
X128133974Y-89789000D01*
X127635500Y-89789000D01*
X127635500Y-78417167D01*
X129811338Y-78417167D01*
X129953383Y-78760943D01*
X130050000Y-78857729D01*
X130050000Y-82813037D01*
X130017808Y-82845173D01*
X129875162Y-83188701D01*
X129874838Y-83560667D01*
X130016883Y-83904443D01*
X130279673Y-84167692D01*
X130623201Y-84310338D01*
X130995167Y-84310662D01*
X131338943Y-84168617D01*
X131602192Y-83905827D01*
X131744838Y-83562299D01*
X131745162Y-83190333D01*
X131603117Y-82846557D01*
X131570000Y-82813382D01*
X131570000Y-82588633D01*
X131893201Y-82722838D01*
X132265167Y-82723162D01*
X132608943Y-82581117D01*
X132872192Y-82318327D01*
X133014838Y-81974799D01*
X133015162Y-81602833D01*
X132873117Y-81259057D01*
X132791860Y-81177658D01*
X132808135Y-76264325D01*
X132842192Y-76230327D01*
X132984838Y-75886799D01*
X132985162Y-75514833D01*
X132843117Y-75171057D01*
X132580327Y-74907808D01*
X132236799Y-74765162D01*
X131864833Y-74764838D01*
X131521057Y-74906883D01*
X131257808Y-75169673D01*
X131115162Y-75513201D01*
X131114838Y-75885167D01*
X131256883Y-76228943D01*
X131288140Y-76260254D01*
X131284208Y-77447202D01*
X131276827Y-77439808D01*
X130933299Y-77297162D01*
X130561333Y-77296838D01*
X130217557Y-77438883D01*
X129954308Y-77701673D01*
X129811662Y-78045201D01*
X129811338Y-78417167D01*
X127635500Y-78417167D01*
X127635500Y-72390500D01*
X129540000Y-72390500D01*
X129601389Y-72378289D01*
X129663980Y-72378289D01*
X130879000Y-72136607D01*
X131108085Y-72041717D01*
X132138129Y-71353463D01*
X132313463Y-71178129D01*
X133001717Y-70148085D01*
X133076102Y-69968504D01*
X133076102Y-78899989D01*
G36*
X161543393Y-69919000D02*
X161610217Y-70080327D01*
X161638283Y-70148085D01*
X162326537Y-71178129D01*
X162501871Y-71353463D01*
X163531915Y-72041717D01*
X163761000Y-72136607D01*
X164976021Y-72378289D01*
X165038612Y-72378289D01*
X165100000Y-72390500D01*
X167004500Y-72390500D01*
X167004500Y-89789000D01*
X166498418Y-89789000D01*
X166453090Y-89718559D01*
X166240890Y-89573569D01*
X165989000Y-89522560D01*
X165710874Y-89522560D01*
X165637401Y-89412599D01*
X164787401Y-88562599D01*
X164540839Y-88397852D01*
X164250000Y-88340000D01*
X163014802Y-88340000D01*
X161319963Y-86645161D01*
X161319963Y-85702640D01*
X161484201Y-85770838D01*
X161856167Y-85771162D01*
X162199943Y-85629117D01*
X162233118Y-85596000D01*
X164537537Y-85596000D01*
X164569673Y-85628192D01*
X164913201Y-85770838D01*
X165285167Y-85771162D01*
X165628943Y-85629117D01*
X165892192Y-85366327D01*
X166034838Y-85022799D01*
X166035162Y-84650833D01*
X165893117Y-84307057D01*
X165630327Y-84043808D01*
X165286799Y-83901162D01*
X164914833Y-83900838D01*
X164571057Y-84042883D01*
X164537882Y-84076000D01*
X162233463Y-84076000D01*
X162201327Y-84043808D01*
X161857799Y-83901162D01*
X161485833Y-83900838D01*
X161319963Y-83969374D01*
X161319963Y-83454598D01*
X161513201Y-83534838D01*
X161885167Y-83535162D01*
X162228943Y-83393117D01*
X162262118Y-83360000D01*
X164537537Y-83360000D01*
X164569673Y-83392192D01*
X164913201Y-83534838D01*
X165285167Y-83535162D01*
X165628943Y-83393117D01*
X165892192Y-83130327D01*
X166034838Y-82786799D01*
X166035162Y-82414833D01*
X165893117Y-82071057D01*
X165630327Y-81807808D01*
X165286799Y-81665162D01*
X164914833Y-81664838D01*
X164571057Y-81806883D01*
X164537882Y-81840000D01*
X162262463Y-81840000D01*
X162230327Y-81807808D01*
X161886799Y-81665162D01*
X161514833Y-81664838D01*
X161319963Y-81745356D01*
X161319963Y-81384640D01*
X161484201Y-81452838D01*
X161856167Y-81453162D01*
X162199943Y-81311117D01*
X162233118Y-81278000D01*
X164537537Y-81278000D01*
X164569673Y-81310192D01*
X164913201Y-81452838D01*
X165285167Y-81453162D01*
X165628943Y-81311117D01*
X165892192Y-81048327D01*
X166034838Y-80704799D01*
X166035162Y-80332833D01*
X165893117Y-79989057D01*
X165630327Y-79725808D01*
X165286799Y-79583162D01*
X164914833Y-79582838D01*
X164571057Y-79724883D01*
X164537882Y-79758000D01*
X162233463Y-79758000D01*
X162201327Y-79725808D01*
X161857799Y-79583162D01*
X161485833Y-79582838D01*
X161319963Y-79651374D01*
X161319963Y-68795739D01*
X161543393Y-69919000D01*
X161543393Y-69919000D01*
G37*
X161543393Y-69919000D02*
X161610217Y-70080327D01*
X161638283Y-70148085D01*
X162326537Y-71178129D01*
X162501871Y-71353463D01*
X163531915Y-72041717D01*
X163761000Y-72136607D01*
X164976021Y-72378289D01*
X165038612Y-72378289D01*
X165100000Y-72390500D01*
X167004500Y-72390500D01*
X167004500Y-89789000D01*
X166498418Y-89789000D01*
X166453090Y-89718559D01*
X166240890Y-89573569D01*
X165989000Y-89522560D01*
X165710874Y-89522560D01*
X165637401Y-89412599D01*
X164787401Y-88562599D01*
X164540839Y-88397852D01*
X164250000Y-88340000D01*
X163014802Y-88340000D01*
X161319963Y-86645161D01*
X161319963Y-85702640D01*
X161484201Y-85770838D01*
X161856167Y-85771162D01*
X162199943Y-85629117D01*
X162233118Y-85596000D01*
X164537537Y-85596000D01*
X164569673Y-85628192D01*
X164913201Y-85770838D01*
X165285167Y-85771162D01*
X165628943Y-85629117D01*
X165892192Y-85366327D01*
X166034838Y-85022799D01*
X166035162Y-84650833D01*
X165893117Y-84307057D01*
X165630327Y-84043808D01*
X165286799Y-83901162D01*
X164914833Y-83900838D01*
X164571057Y-84042883D01*
X164537882Y-84076000D01*
X162233463Y-84076000D01*
X162201327Y-84043808D01*
X161857799Y-83901162D01*
X161485833Y-83900838D01*
X161319963Y-83969374D01*
X161319963Y-83454598D01*
X161513201Y-83534838D01*
X161885167Y-83535162D01*
X162228943Y-83393117D01*
X162262118Y-83360000D01*
X164537537Y-83360000D01*
X164569673Y-83392192D01*
X164913201Y-83534838D01*
X165285167Y-83535162D01*
X165628943Y-83393117D01*
X165892192Y-83130327D01*
X166034838Y-82786799D01*
X166035162Y-82414833D01*
X165893117Y-82071057D01*
X165630327Y-81807808D01*
X165286799Y-81665162D01*
X164914833Y-81664838D01*
X164571057Y-81806883D01*
X164537882Y-81840000D01*
X162262463Y-81840000D01*
X162230327Y-81807808D01*
X161886799Y-81665162D01*
X161514833Y-81664838D01*
X161319963Y-81745356D01*
X161319963Y-81384640D01*
X161484201Y-81452838D01*
X161856167Y-81453162D01*
X162199943Y-81311117D01*
X162233118Y-81278000D01*
X164537537Y-81278000D01*
X164569673Y-81310192D01*
X164913201Y-81452838D01*
X165285167Y-81453162D01*
X165628943Y-81311117D01*
X165892192Y-81048327D01*
X166034838Y-80704799D01*
X166035162Y-80332833D01*
X165893117Y-79989057D01*
X165630327Y-79725808D01*
X165286799Y-79583162D01*
X164914833Y-79582838D01*
X164571057Y-79724883D01*
X164537882Y-79758000D01*
X162233463Y-79758000D01*
X162201327Y-79725808D01*
X161857799Y-79583162D01*
X161485833Y-79582838D01*
X161319963Y-79651374D01*
X161319963Y-68795739D01*
X161543393Y-69919000D01*
G36*
X167004500Y-64769500D02*
X165100000Y-64769500D01*
X165038612Y-64781711D01*
X164976021Y-64781711D01*
X163761000Y-65023393D01*
X163531915Y-65118283D01*
X162501871Y-65806537D01*
X162326537Y-65981871D01*
X161638283Y-67011915D01*
X161543393Y-67241000D01*
X161319963Y-68364261D01*
X161319963Y-68301686D01*
X161329990Y-66313834D01*
X161329619Y-66311917D01*
X161330000Y-66310000D01*
X161330000Y-65414802D01*
X161995037Y-64749765D01*
X162228943Y-64653117D01*
X162492192Y-64390327D01*
X162634838Y-64046799D01*
X162635162Y-63674833D01*
X162497027Y-63340519D01*
X162614838Y-63056799D01*
X162615162Y-62684833D01*
X162473117Y-62341057D01*
X162347360Y-62215081D01*
X162392192Y-62170327D01*
X162534838Y-61826799D01*
X162535162Y-61454833D01*
X162393117Y-61111057D01*
X162130327Y-60847808D01*
X161795466Y-60708761D01*
X161693117Y-60461057D01*
X161430327Y-60197808D01*
X161086799Y-60055162D01*
X160925415Y-60055021D01*
X160903117Y-60001057D01*
X160640327Y-59737808D01*
X160296799Y-59595162D01*
X159924833Y-59594838D01*
X159581057Y-59736883D01*
X159317808Y-59999673D01*
X159175162Y-60343201D01*
X159175121Y-60390077D01*
X157412599Y-62152599D01*
X157247852Y-62399161D01*
X157190000Y-62690000D01*
X157190000Y-71467935D01*
X156930327Y-71207808D01*
X156586799Y-71065162D01*
X156214833Y-71064838D01*
X155871057Y-71206883D01*
X155837882Y-71240000D01*
X153535547Y-71240000D01*
X153604082Y-71074951D01*
X153898943Y-70953117D01*
X154162192Y-70690327D01*
X154260270Y-70454130D01*
X154528943Y-70343117D01*
X154792192Y-70080327D01*
X154906177Y-69805821D01*
X155178943Y-69693117D01*
X155442192Y-69430327D01*
X155584838Y-69086799D01*
X155585162Y-68714833D01*
X155443117Y-68371057D01*
X155410000Y-68337882D01*
X155410000Y-60800944D01*
X155428943Y-60793117D01*
X155692192Y-60530327D01*
X155834838Y-60186799D01*
X155835162Y-59814833D01*
X155693117Y-59471057D01*
X155430327Y-59207808D01*
X155086799Y-59065162D01*
X154714833Y-59064838D01*
X154371057Y-59206883D01*
X154107808Y-59469673D01*
X153965162Y-59813201D01*
X153965101Y-59883346D01*
X153947852Y-59909161D01*
X153890000Y-60200000D01*
X153890000Y-64884895D01*
X153824833Y-64884838D01*
X153481057Y-65026883D01*
X153217808Y-65289673D01*
X153075162Y-65633201D01*
X153074838Y-66005167D01*
X153216883Y-66348943D01*
X153250000Y-66382118D01*
X153250000Y-66444886D01*
X153194833Y-66444838D01*
X152851057Y-66586883D01*
X152587808Y-66849673D01*
X152445162Y-67193201D01*
X152444838Y-67565167D01*
X152586883Y-67908943D01*
X152610000Y-67932100D01*
X152610000Y-67984895D01*
X152544833Y-67984838D01*
X152201057Y-68126883D01*
X152126306Y-68201504D01*
X151587401Y-67662599D01*
X151340839Y-67497852D01*
X151050000Y-67440000D01*
X143412463Y-67440000D01*
X143380327Y-67407808D01*
X143036799Y-67265162D01*
X142664833Y-67264838D01*
X142321057Y-67406883D01*
X142057808Y-67669673D01*
X141915162Y-68013201D01*
X141914838Y-68385167D01*
X142056883Y-68728943D01*
X142319673Y-68992192D01*
X142663201Y-69134838D01*
X143035167Y-69135162D01*
X143368275Y-68997525D01*
X143472750Y-69102000D01*
X144272000Y-69102000D01*
X144272000Y-69080000D01*
X144526000Y-69080000D01*
X144526000Y-69102000D01*
X145325250Y-69102000D01*
X145383250Y-69044000D01*
X145441250Y-69102000D01*
X146240500Y-69102000D01*
X146240500Y-69080000D01*
X146494500Y-69080000D01*
X146494500Y-69102000D01*
X147293750Y-69102000D01*
X147320000Y-69075750D01*
X147346250Y-69102000D01*
X148145500Y-69102000D01*
X148145500Y-69080000D01*
X148399500Y-69080000D01*
X148399500Y-69102000D01*
X149198750Y-69102000D01*
X149256750Y-69044000D01*
X149314750Y-69102000D01*
X150114000Y-69102000D01*
X150114000Y-69080000D01*
X150368000Y-69080000D01*
X150368000Y-69102000D01*
X150388000Y-69102000D01*
X150388000Y-69352000D01*
X150368000Y-69352000D01*
X150368000Y-69374000D01*
X150114000Y-69374000D01*
X150114000Y-69352000D01*
X149314750Y-69352000D01*
X149256750Y-69410000D01*
X149198750Y-69352000D01*
X148399500Y-69352000D01*
X148399500Y-69374000D01*
X148145500Y-69374000D01*
X148145500Y-69352000D01*
X147346250Y-69352000D01*
X147320000Y-69378250D01*
X147293750Y-69352000D01*
X146494500Y-69352000D01*
X146494500Y-69374000D01*
X146240500Y-69374000D01*
X146240500Y-69352000D01*
X145441250Y-69352000D01*
X145383250Y-69410000D01*
X145325250Y-69352000D01*
X144526000Y-69352000D01*
X144526000Y-69374000D01*
X144272000Y-69374000D01*
X144272000Y-69352000D01*
X143472750Y-69352000D01*
X143314000Y-69510750D01*
X143314000Y-69603309D01*
X143410673Y-69836698D01*
X143551910Y-69977936D01*
X143497559Y-70012910D01*
X143352569Y-70225110D01*
X143301560Y-70477000D01*
X143301560Y-70977000D01*
X143345838Y-71212317D01*
X143469775Y-71404920D01*
X143404789Y-71500030D01*
X143353780Y-71751920D01*
X143353780Y-72549480D01*
X143389037Y-72736853D01*
X143336799Y-72715162D01*
X142964833Y-72714838D01*
X142621057Y-72856883D01*
X142357808Y-73119673D01*
X142215162Y-73463201D01*
X142214838Y-73835167D01*
X142356883Y-74178943D01*
X142619673Y-74442192D01*
X142963201Y-74584838D01*
X143335167Y-74585162D01*
X143539129Y-74500887D01*
X143749330Y-74644511D01*
X144001220Y-74695520D01*
X144798780Y-74695520D01*
X145034097Y-74651242D01*
X145250221Y-74512170D01*
X145386095Y-74313312D01*
X145504630Y-74497521D01*
X145607500Y-74567809D01*
X145607500Y-74930000D01*
X145665352Y-75220839D01*
X145830099Y-75467401D01*
X146528599Y-76165901D01*
X146775160Y-76330648D01*
X147066000Y-76388500D01*
X149678537Y-76388500D01*
X149710673Y-76420692D01*
X150041948Y-76558250D01*
X149210198Y-77390000D01*
X147862506Y-77390000D01*
X147855327Y-77382808D01*
X147511799Y-77240162D01*
X147139833Y-77239838D01*
X146796057Y-77381883D01*
X146532808Y-77644673D01*
X146390162Y-77988201D01*
X146389838Y-78360167D01*
X146531883Y-78703943D01*
X146794673Y-78967192D01*
X147138201Y-79109838D01*
X147510167Y-79110162D01*
X147853943Y-78968117D01*
X147912162Y-78910000D01*
X149525000Y-78910000D01*
X149815839Y-78852148D01*
X150062401Y-78687401D01*
X151987401Y-76762401D01*
X152152148Y-76515839D01*
X152210000Y-76225000D01*
X152210000Y-74000000D01*
X152152148Y-73709161D01*
X151987401Y-73462599D01*
X151636701Y-73111899D01*
X151390139Y-72947152D01*
X151181439Y-72905639D01*
X151177815Y-72900007D01*
X151245211Y-72801370D01*
X151296220Y-72549480D01*
X151296220Y-71751920D01*
X151265881Y-71590683D01*
X152212599Y-72537401D01*
X152459161Y-72702148D01*
X152750000Y-72760000D01*
X155837537Y-72760000D01*
X155869673Y-72792192D01*
X156213201Y-72934838D01*
X156585167Y-72935162D01*
X156928943Y-72793117D01*
X157190000Y-72532515D01*
X157190000Y-86575198D01*
X154402599Y-89362599D01*
X154295717Y-89522560D01*
X154051000Y-89522560D01*
X153815683Y-89566838D01*
X153669093Y-89661166D01*
X153540890Y-89573569D01*
X153289000Y-89522560D01*
X153160000Y-89522560D01*
X153160000Y-88600000D01*
X153102148Y-88309161D01*
X152937401Y-88062599D01*
X151160000Y-86285198D01*
X151160000Y-84662463D01*
X151192192Y-84630327D01*
X151334838Y-84286799D01*
X151335162Y-83914833D01*
X151193117Y-83571057D01*
X150930327Y-83307808D01*
X150586799Y-83165162D01*
X150360000Y-83164964D01*
X150360000Y-82314802D01*
X151989802Y-80685000D01*
X152037537Y-80685000D01*
X152069673Y-80717192D01*
X152413201Y-80859838D01*
X152785167Y-80860162D01*
X153128943Y-80718117D01*
X153392192Y-80455327D01*
X153534838Y-80111799D01*
X153535162Y-79739833D01*
X153393117Y-79396057D01*
X153130327Y-79132808D01*
X152786799Y-78990162D01*
X152414833Y-78989838D01*
X152071057Y-79131883D01*
X152037882Y-79165000D01*
X151675000Y-79165000D01*
X151384161Y-79222852D01*
X151137599Y-79387599D01*
X149062599Y-81462599D01*
X148897852Y-81709161D01*
X148840000Y-82000000D01*
X148840000Y-88400000D01*
X148897852Y-88690839D01*
X149062599Y-88937401D01*
X149100000Y-88974802D01*
X149100000Y-89522560D01*
X148971000Y-89522560D01*
X148735683Y-89566838D01*
X148589093Y-89661166D01*
X148460890Y-89573569D01*
X148209000Y-89522560D01*
X148080000Y-89522560D01*
X148080000Y-89220000D01*
X148022148Y-88929161D01*
X147857401Y-88682599D01*
X144635122Y-85460320D01*
X144635162Y-85414833D01*
X144493117Y-85071057D01*
X144230327Y-84807808D01*
X143886799Y-84665162D01*
X143514833Y-84664838D01*
X143171057Y-84806883D01*
X142907808Y-85069673D01*
X142765162Y-85413201D01*
X142764838Y-85785167D01*
X142906883Y-86128943D01*
X143169673Y-86392192D01*
X143513201Y-86534838D01*
X143560077Y-86534879D01*
X146547758Y-89522560D01*
X146431000Y-89522560D01*
X146195683Y-89566838D01*
X146049093Y-89661166D01*
X145920890Y-89573569D01*
X145669000Y-89522560D01*
X145540000Y-89522560D01*
X145540000Y-89120000D01*
X145506352Y-88950840D01*
X145482148Y-88829160D01*
X145317401Y-88582599D01*
X142235088Y-85500286D01*
X142235162Y-85414833D01*
X142093117Y-85071057D01*
X141830327Y-84807808D01*
X141553107Y-84692695D01*
X144459802Y-81786000D01*
X147011537Y-81786000D01*
X147043673Y-81818192D01*
X147387201Y-81960838D01*
X147759167Y-81961162D01*
X148102943Y-81819117D01*
X148366192Y-81556327D01*
X148508838Y-81212799D01*
X148509162Y-80840833D01*
X148367117Y-80497057D01*
X148104327Y-80233808D01*
X147760799Y-80091162D01*
X147388833Y-80090838D01*
X147045057Y-80232883D01*
X147011882Y-80266000D01*
X144145000Y-80266000D01*
X143854161Y-80323852D01*
X143607599Y-80488599D01*
X139512599Y-84583599D01*
X139347852Y-84830161D01*
X139290000Y-85121000D01*
X139290000Y-86850000D01*
X139347852Y-87140839D01*
X139512599Y-87387401D01*
X141480000Y-89354802D01*
X141480000Y-89522560D01*
X141351000Y-89522560D01*
X141165628Y-89557440D01*
X141144618Y-89451814D01*
X141052392Y-89229161D01*
X141049728Y-89222729D01*
X140857017Y-88934317D01*
X140681683Y-88758983D01*
X140393271Y-88566272D01*
X140326173Y-88538480D01*
X140164186Y-88471382D01*
X139823980Y-88403711D01*
X139700000Y-88403712D01*
X139576020Y-88403711D01*
X139235814Y-88471382D01*
X139160450Y-88502599D01*
X139006729Y-88566272D01*
X138718317Y-88758983D01*
X138542983Y-88934317D01*
X138350272Y-89222729D01*
X138347608Y-89229161D01*
X138255382Y-89451814D01*
X138233863Y-89559996D01*
X138049000Y-89522560D01*
X137920000Y-89522560D01*
X137920000Y-86460000D01*
X137910000Y-86409727D01*
X137910000Y-83890802D01*
X142125680Y-79675122D01*
X142171167Y-79675162D01*
X142514943Y-79533117D01*
X142778192Y-79270327D01*
X142920838Y-78926799D01*
X142921162Y-78554833D01*
X142779117Y-78211057D01*
X142516327Y-77947808D01*
X142172799Y-77805162D01*
X141800833Y-77804838D01*
X141457057Y-77946883D01*
X141193808Y-78209673D01*
X141051162Y-78553201D01*
X141051121Y-78600077D01*
X136612599Y-83038599D01*
X136447852Y-83285161D01*
X136390000Y-83576000D01*
X136390000Y-86460000D01*
X136400000Y-86510273D01*
X136400000Y-89522560D01*
X136271000Y-89522560D01*
X136035683Y-89566838D01*
X135889093Y-89661166D01*
X135760890Y-89573569D01*
X135509000Y-89522560D01*
X135380000Y-89522560D01*
X135380000Y-86890000D01*
X135322148Y-86599161D01*
X135322148Y-86599160D01*
X135312753Y-86585099D01*
X135385167Y-86585162D01*
X135728943Y-86443117D01*
X135992192Y-86180327D01*
X136134838Y-85836799D01*
X136135162Y-85464833D01*
X135993117Y-85121057D01*
X135730327Y-84857808D01*
X135386799Y-84715162D01*
X135339923Y-84715121D01*
X135310000Y-84685198D01*
X135310000Y-81422310D01*
X135429673Y-81542192D01*
X135773201Y-81684838D01*
X136145167Y-81685162D01*
X136488943Y-81543117D01*
X136752192Y-81280327D01*
X136845747Y-81055023D01*
X137005167Y-81055162D01*
X137348943Y-80913117D01*
X137612192Y-80650327D01*
X137714052Y-80405022D01*
X137875167Y-80405162D01*
X138218943Y-80263117D01*
X138482192Y-80000327D01*
X138588178Y-79745086D01*
X138675167Y-79745162D01*
X139018943Y-79603117D01*
X139282192Y-79340327D01*
X139424838Y-78996799D01*
X139425162Y-78624833D01*
X139283117Y-78281057D01*
X139251794Y-78249679D01*
X139258201Y-76244259D01*
X139292192Y-76210327D01*
X139434838Y-75866799D01*
X139435162Y-75494833D01*
X139293117Y-75151057D01*
X139030327Y-74887808D01*
X138686799Y-74745162D01*
X138314833Y-74744838D01*
X137971057Y-74886883D01*
X137940151Y-74917735D01*
X137596799Y-74775162D01*
X137224833Y-74774838D01*
X136881057Y-74916883D01*
X136840168Y-74957701D01*
X136810327Y-74927808D01*
X136466799Y-74785162D01*
X136094833Y-74784838D01*
X135792639Y-74909702D01*
X135516799Y-74795162D01*
X135310000Y-74794982D01*
X135310000Y-62285167D01*
X147764838Y-62285167D01*
X147906883Y-62628943D01*
X148169673Y-62892192D01*
X148513201Y-63034838D01*
X148560077Y-63034879D01*
X149964878Y-64439680D01*
X149964838Y-64485167D01*
X150106883Y-64828943D01*
X150369673Y-65092192D01*
X150713201Y-65234838D01*
X151085167Y-65235162D01*
X151428943Y-65093117D01*
X151692192Y-64830327D01*
X151834838Y-64486799D01*
X151835162Y-64114833D01*
X151693117Y-63771057D01*
X151430327Y-63507808D01*
X151086799Y-63365162D01*
X151039923Y-63365121D01*
X149635122Y-61960320D01*
X149635162Y-61914833D01*
X149493117Y-61571057D01*
X149230327Y-61307808D01*
X148886799Y-61165162D01*
X148514833Y-61164838D01*
X148171057Y-61306883D01*
X147907808Y-61569673D01*
X147765162Y-61913201D01*
X147764838Y-62285167D01*
X135310000Y-62285167D01*
X135310000Y-60262463D01*
X135342192Y-60230327D01*
X135484838Y-59886799D01*
X135485162Y-59514833D01*
X135343117Y-59171057D01*
X135080327Y-58907808D01*
X134736799Y-58765162D01*
X134364833Y-58764838D01*
X134021057Y-58906883D01*
X133757808Y-59169673D01*
X133615162Y-59513201D01*
X133614925Y-59785460D01*
X133321057Y-59906883D01*
X133057808Y-60169673D01*
X132915162Y-60513201D01*
X132914838Y-60885167D01*
X133056883Y-61228943D01*
X133076102Y-61248196D01*
X133076102Y-67191497D01*
X133046487Y-67120000D01*
X133001717Y-67011915D01*
X132313463Y-65981871D01*
X132138129Y-65806537D01*
X131108085Y-65118283D01*
X131107044Y-65117852D01*
X130879000Y-65023393D01*
X129663980Y-64781711D01*
X129601389Y-64781711D01*
X129540000Y-64769500D01*
X127635500Y-64769500D01*
X127635500Y-57785500D01*
X167004500Y-57785500D01*
X167004500Y-64769500D01*
X167004500Y-64769500D01*
G37*
X167004500Y-64769500D02*
X165100000Y-64769500D01*
X165038612Y-64781711D01*
X164976021Y-64781711D01*
X163761000Y-65023393D01*
X163531915Y-65118283D01*
X162501871Y-65806537D01*
X162326537Y-65981871D01*
X161638283Y-67011915D01*
X161543393Y-67241000D01*
X161319963Y-68364261D01*
X161319963Y-68301686D01*
X161329990Y-66313834D01*
X161329619Y-66311917D01*
X161330000Y-66310000D01*
X161330000Y-65414802D01*
X161995037Y-64749765D01*
X162228943Y-64653117D01*
X162492192Y-64390327D01*
X162634838Y-64046799D01*
X162635162Y-63674833D01*
X162497027Y-63340519D01*
X162614838Y-63056799D01*
X162615162Y-62684833D01*
X162473117Y-62341057D01*
X162347360Y-62215081D01*
X162392192Y-62170327D01*
X162534838Y-61826799D01*
X162535162Y-61454833D01*
X162393117Y-61111057D01*
X162130327Y-60847808D01*
X161795466Y-60708761D01*
X161693117Y-60461057D01*
X161430327Y-60197808D01*
X161086799Y-60055162D01*
X160925415Y-60055021D01*
X160903117Y-60001057D01*
X160640327Y-59737808D01*
X160296799Y-59595162D01*
X159924833Y-59594838D01*
X159581057Y-59736883D01*
X159317808Y-59999673D01*
X159175162Y-60343201D01*
X159175121Y-60390077D01*
X157412599Y-62152599D01*
X157247852Y-62399161D01*
X157190000Y-62690000D01*
X157190000Y-71467935D01*
X156930327Y-71207808D01*
X156586799Y-71065162D01*
X156214833Y-71064838D01*
X155871057Y-71206883D01*
X155837882Y-71240000D01*
X153535547Y-71240000D01*
X153604082Y-71074951D01*
X153898943Y-70953117D01*
X154162192Y-70690327D01*
X154260270Y-70454130D01*
X154528943Y-70343117D01*
X154792192Y-70080327D01*
X154906177Y-69805821D01*
X155178943Y-69693117D01*
X155442192Y-69430327D01*
X155584838Y-69086799D01*
X155585162Y-68714833D01*
X155443117Y-68371057D01*
X155410000Y-68337882D01*
X155410000Y-60800944D01*
X155428943Y-60793117D01*
X155692192Y-60530327D01*
X155834838Y-60186799D01*
X155835162Y-59814833D01*
X155693117Y-59471057D01*
X155430327Y-59207808D01*
X155086799Y-59065162D01*
X154714833Y-59064838D01*
X154371057Y-59206883D01*
X154107808Y-59469673D01*
X153965162Y-59813201D01*
X153965101Y-59883346D01*
X153947852Y-59909161D01*
X153890000Y-60200000D01*
X153890000Y-64884895D01*
X153824833Y-64884838D01*
X153481057Y-65026883D01*
X153217808Y-65289673D01*
X153075162Y-65633201D01*
X153074838Y-66005167D01*
X153216883Y-66348943D01*
X153250000Y-66382118D01*
X153250000Y-66444886D01*
X153194833Y-66444838D01*
X152851057Y-66586883D01*
X152587808Y-66849673D01*
X152445162Y-67193201D01*
X152444838Y-67565167D01*
X152586883Y-67908943D01*
X152610000Y-67932100D01*
X152610000Y-67984895D01*
X152544833Y-67984838D01*
X152201057Y-68126883D01*
X152126306Y-68201504D01*
X151587401Y-67662599D01*
X151340839Y-67497852D01*
X151050000Y-67440000D01*
X143412463Y-67440000D01*
X143380327Y-67407808D01*
X143036799Y-67265162D01*
X142664833Y-67264838D01*
X142321057Y-67406883D01*
X142057808Y-67669673D01*
X141915162Y-68013201D01*
X141914838Y-68385167D01*
X142056883Y-68728943D01*
X142319673Y-68992192D01*
X142663201Y-69134838D01*
X143035167Y-69135162D01*
X143368275Y-68997525D01*
X143472750Y-69102000D01*
X144272000Y-69102000D01*
X144272000Y-69080000D01*
X144526000Y-69080000D01*
X144526000Y-69102000D01*
X145325250Y-69102000D01*
X145383250Y-69044000D01*
X145441250Y-69102000D01*
X146240500Y-69102000D01*
X146240500Y-69080000D01*
X146494500Y-69080000D01*
X146494500Y-69102000D01*
X147293750Y-69102000D01*
X147320000Y-69075750D01*
X147346250Y-69102000D01*
X148145500Y-69102000D01*
X148145500Y-69080000D01*
X148399500Y-69080000D01*
X148399500Y-69102000D01*
X149198750Y-69102000D01*
X149256750Y-69044000D01*
X149314750Y-69102000D01*
X150114000Y-69102000D01*
X150114000Y-69080000D01*
X150368000Y-69080000D01*
X150368000Y-69102000D01*
X150388000Y-69102000D01*
X150388000Y-69352000D01*
X150368000Y-69352000D01*
X150368000Y-69374000D01*
X150114000Y-69374000D01*
X150114000Y-69352000D01*
X149314750Y-69352000D01*
X149256750Y-69410000D01*
X149198750Y-69352000D01*
X148399500Y-69352000D01*
X148399500Y-69374000D01*
X148145500Y-69374000D01*
X148145500Y-69352000D01*
X147346250Y-69352000D01*
X147320000Y-69378250D01*
X147293750Y-69352000D01*
X146494500Y-69352000D01*
X146494500Y-69374000D01*
X146240500Y-69374000D01*
X146240500Y-69352000D01*
X145441250Y-69352000D01*
X145383250Y-69410000D01*
X145325250Y-69352000D01*
X144526000Y-69352000D01*
X144526000Y-69374000D01*
X144272000Y-69374000D01*
X144272000Y-69352000D01*
X143472750Y-69352000D01*
X143314000Y-69510750D01*
X143314000Y-69603309D01*
X143410673Y-69836698D01*
X143551910Y-69977936D01*
X143497559Y-70012910D01*
X143352569Y-70225110D01*
X143301560Y-70477000D01*
X143301560Y-70977000D01*
X143345838Y-71212317D01*
X143469775Y-71404920D01*
X143404789Y-71500030D01*
X143353780Y-71751920D01*
X143353780Y-72549480D01*
X143389037Y-72736853D01*
X143336799Y-72715162D01*
X142964833Y-72714838D01*
X142621057Y-72856883D01*
X142357808Y-73119673D01*
X142215162Y-73463201D01*
X142214838Y-73835167D01*
X142356883Y-74178943D01*
X142619673Y-74442192D01*
X142963201Y-74584838D01*
X143335167Y-74585162D01*
X143539129Y-74500887D01*
X143749330Y-74644511D01*
X144001220Y-74695520D01*
X144798780Y-74695520D01*
X145034097Y-74651242D01*
X145250221Y-74512170D01*
X145386095Y-74313312D01*
X145504630Y-74497521D01*
X145607500Y-74567809D01*
X145607500Y-74930000D01*
X145665352Y-75220839D01*
X145830099Y-75467401D01*
X146528599Y-76165901D01*
X146775160Y-76330648D01*
X147066000Y-76388500D01*
X149678537Y-76388500D01*
X149710673Y-76420692D01*
X150041948Y-76558250D01*
X149210198Y-77390000D01*
X147862506Y-77390000D01*
X147855327Y-77382808D01*
X147511799Y-77240162D01*
X147139833Y-77239838D01*
X146796057Y-77381883D01*
X146532808Y-77644673D01*
X146390162Y-77988201D01*
X146389838Y-78360167D01*
X146531883Y-78703943D01*
X146794673Y-78967192D01*
X147138201Y-79109838D01*
X147510167Y-79110162D01*
X147853943Y-78968117D01*
X147912162Y-78910000D01*
X149525000Y-78910000D01*
X149815839Y-78852148D01*
X150062401Y-78687401D01*
X151987401Y-76762401D01*
X152152148Y-76515839D01*
X152210000Y-76225000D01*
X152210000Y-74000000D01*
X152152148Y-73709161D01*
X151987401Y-73462599D01*
X151636701Y-73111899D01*
X151390139Y-72947152D01*
X151181439Y-72905639D01*
X151177815Y-72900007D01*
X151245211Y-72801370D01*
X151296220Y-72549480D01*
X151296220Y-71751920D01*
X151265881Y-71590683D01*
X152212599Y-72537401D01*
X152459161Y-72702148D01*
X152750000Y-72760000D01*
X155837537Y-72760000D01*
X155869673Y-72792192D01*
X156213201Y-72934838D01*
X156585167Y-72935162D01*
X156928943Y-72793117D01*
X157190000Y-72532515D01*
X157190000Y-86575198D01*
X154402599Y-89362599D01*
X154295717Y-89522560D01*
X154051000Y-89522560D01*
X153815683Y-89566838D01*
X153669093Y-89661166D01*
X153540890Y-89573569D01*
X153289000Y-89522560D01*
X153160000Y-89522560D01*
X153160000Y-88600000D01*
X153102148Y-88309161D01*
X152937401Y-88062599D01*
X151160000Y-86285198D01*
X151160000Y-84662463D01*
X151192192Y-84630327D01*
X151334838Y-84286799D01*
X151335162Y-83914833D01*
X151193117Y-83571057D01*
X150930327Y-83307808D01*
X150586799Y-83165162D01*
X150360000Y-83164964D01*
X150360000Y-82314802D01*
X151989802Y-80685000D01*
X152037537Y-80685000D01*
X152069673Y-80717192D01*
X152413201Y-80859838D01*
X152785167Y-80860162D01*
X153128943Y-80718117D01*
X153392192Y-80455327D01*
X153534838Y-80111799D01*
X153535162Y-79739833D01*
X153393117Y-79396057D01*
X153130327Y-79132808D01*
X152786799Y-78990162D01*
X152414833Y-78989838D01*
X152071057Y-79131883D01*
X152037882Y-79165000D01*
X151675000Y-79165000D01*
X151384161Y-79222852D01*
X151137599Y-79387599D01*
X149062599Y-81462599D01*
X148897852Y-81709161D01*
X148840000Y-82000000D01*
X148840000Y-88400000D01*
X148897852Y-88690839D01*
X149062599Y-88937401D01*
X149100000Y-88974802D01*
X149100000Y-89522560D01*
X148971000Y-89522560D01*
X148735683Y-89566838D01*
X148589093Y-89661166D01*
X148460890Y-89573569D01*
X148209000Y-89522560D01*
X148080000Y-89522560D01*
X148080000Y-89220000D01*
X148022148Y-88929161D01*
X147857401Y-88682599D01*
X144635122Y-85460320D01*
X144635162Y-85414833D01*
X144493117Y-85071057D01*
X144230327Y-84807808D01*
X143886799Y-84665162D01*
X143514833Y-84664838D01*
X143171057Y-84806883D01*
X142907808Y-85069673D01*
X142765162Y-85413201D01*
X142764838Y-85785167D01*
X142906883Y-86128943D01*
X143169673Y-86392192D01*
X143513201Y-86534838D01*
X143560077Y-86534879D01*
X146547758Y-89522560D01*
X146431000Y-89522560D01*
X146195683Y-89566838D01*
X146049093Y-89661166D01*
X145920890Y-89573569D01*
X145669000Y-89522560D01*
X145540000Y-89522560D01*
X145540000Y-89120000D01*
X145506352Y-88950840D01*
X145482148Y-88829160D01*
X145317401Y-88582599D01*
X142235088Y-85500286D01*
X142235162Y-85414833D01*
X142093117Y-85071057D01*
X141830327Y-84807808D01*
X141553107Y-84692695D01*
X144459802Y-81786000D01*
X147011537Y-81786000D01*
X147043673Y-81818192D01*
X147387201Y-81960838D01*
X147759167Y-81961162D01*
X148102943Y-81819117D01*
X148366192Y-81556327D01*
X148508838Y-81212799D01*
X148509162Y-80840833D01*
X148367117Y-80497057D01*
X148104327Y-80233808D01*
X147760799Y-80091162D01*
X147388833Y-80090838D01*
X147045057Y-80232883D01*
X147011882Y-80266000D01*
X144145000Y-80266000D01*
X143854161Y-80323852D01*
X143607599Y-80488599D01*
X139512599Y-84583599D01*
X139347852Y-84830161D01*
X139290000Y-85121000D01*
X139290000Y-86850000D01*
X139347852Y-87140839D01*
X139512599Y-87387401D01*
X141480000Y-89354802D01*
X141480000Y-89522560D01*
X141351000Y-89522560D01*
X141165628Y-89557440D01*
X141144618Y-89451814D01*
X141052392Y-89229161D01*
X141049728Y-89222729D01*
X140857017Y-88934317D01*
X140681683Y-88758983D01*
X140393271Y-88566272D01*
X140326173Y-88538480D01*
X140164186Y-88471382D01*
X139823980Y-88403711D01*
X139700000Y-88403712D01*
X139576020Y-88403711D01*
X139235814Y-88471382D01*
X139160450Y-88502599D01*
X139006729Y-88566272D01*
X138718317Y-88758983D01*
X138542983Y-88934317D01*
X138350272Y-89222729D01*
X138347608Y-89229161D01*
X138255382Y-89451814D01*
X138233863Y-89559996D01*
X138049000Y-89522560D01*
X137920000Y-89522560D01*
X137920000Y-86460000D01*
X137910000Y-86409727D01*
X137910000Y-83890802D01*
X142125680Y-79675122D01*
X142171167Y-79675162D01*
X142514943Y-79533117D01*
X142778192Y-79270327D01*
X142920838Y-78926799D01*
X142921162Y-78554833D01*
X142779117Y-78211057D01*
X142516327Y-77947808D01*
X142172799Y-77805162D01*
X141800833Y-77804838D01*
X141457057Y-77946883D01*
X141193808Y-78209673D01*
X141051162Y-78553201D01*
X141051121Y-78600077D01*
X136612599Y-83038599D01*
X136447852Y-83285161D01*
X136390000Y-83576000D01*
X136390000Y-86460000D01*
X136400000Y-86510273D01*
X136400000Y-89522560D01*
X136271000Y-89522560D01*
X136035683Y-89566838D01*
X135889093Y-89661166D01*
X135760890Y-89573569D01*
X135509000Y-89522560D01*
X135380000Y-89522560D01*
X135380000Y-86890000D01*
X135322148Y-86599161D01*
X135322148Y-86599160D01*
X135312753Y-86585099D01*
X135385167Y-86585162D01*
X135728943Y-86443117D01*
X135992192Y-86180327D01*
X136134838Y-85836799D01*
X136135162Y-85464833D01*
X135993117Y-85121057D01*
X135730327Y-84857808D01*
X135386799Y-84715162D01*
X135339923Y-84715121D01*
X135310000Y-84685198D01*
X135310000Y-81422310D01*
X135429673Y-81542192D01*
X135773201Y-81684838D01*
X136145167Y-81685162D01*
X136488943Y-81543117D01*
X136752192Y-81280327D01*
X136845747Y-81055023D01*
X137005167Y-81055162D01*
X137348943Y-80913117D01*
X137612192Y-80650327D01*
X137714052Y-80405022D01*
X137875167Y-80405162D01*
X138218943Y-80263117D01*
X138482192Y-80000327D01*
X138588178Y-79745086D01*
X138675167Y-79745162D01*
X139018943Y-79603117D01*
X139282192Y-79340327D01*
X139424838Y-78996799D01*
X139425162Y-78624833D01*
X139283117Y-78281057D01*
X139251794Y-78249679D01*
X139258201Y-76244259D01*
X139292192Y-76210327D01*
X139434838Y-75866799D01*
X139435162Y-75494833D01*
X139293117Y-75151057D01*
X139030327Y-74887808D01*
X138686799Y-74745162D01*
X138314833Y-74744838D01*
X137971057Y-74886883D01*
X137940151Y-74917735D01*
X137596799Y-74775162D01*
X137224833Y-74774838D01*
X136881057Y-74916883D01*
X136840168Y-74957701D01*
X136810327Y-74927808D01*
X136466799Y-74785162D01*
X136094833Y-74784838D01*
X135792639Y-74909702D01*
X135516799Y-74795162D01*
X135310000Y-74794982D01*
X135310000Y-62285167D01*
X147764838Y-62285167D01*
X147906883Y-62628943D01*
X148169673Y-62892192D01*
X148513201Y-63034838D01*
X148560077Y-63034879D01*
X149964878Y-64439680D01*
X149964838Y-64485167D01*
X150106883Y-64828943D01*
X150369673Y-65092192D01*
X150713201Y-65234838D01*
X151085167Y-65235162D01*
X151428943Y-65093117D01*
X151692192Y-64830327D01*
X151834838Y-64486799D01*
X151835162Y-64114833D01*
X151693117Y-63771057D01*
X151430327Y-63507808D01*
X151086799Y-63365162D01*
X151039923Y-63365121D01*
X149635122Y-61960320D01*
X149635162Y-61914833D01*
X149493117Y-61571057D01*
X149230327Y-61307808D01*
X148886799Y-61165162D01*
X148514833Y-61164838D01*
X148171057Y-61306883D01*
X147907808Y-61569673D01*
X147765162Y-61913201D01*
X147764838Y-62285167D01*
X135310000Y-62285167D01*
X135310000Y-60262463D01*
X135342192Y-60230327D01*
X135484838Y-59886799D01*
X135485162Y-59514833D01*
X135343117Y-59171057D01*
X135080327Y-58907808D01*
X134736799Y-58765162D01*
X134364833Y-58764838D01*
X134021057Y-58906883D01*
X133757808Y-59169673D01*
X133615162Y-59513201D01*
X133614925Y-59785460D01*
X133321057Y-59906883D01*
X133057808Y-60169673D01*
X132915162Y-60513201D01*
X132914838Y-60885167D01*
X133056883Y-61228943D01*
X133076102Y-61248196D01*
X133076102Y-67191497D01*
X133046487Y-67120000D01*
X133001717Y-67011915D01*
X132313463Y-65981871D01*
X132138129Y-65806537D01*
X131108085Y-65118283D01*
X131107044Y-65117852D01*
X130879000Y-65023393D01*
X129663980Y-64781711D01*
X129601389Y-64781711D01*
X129540000Y-64769500D01*
X127635500Y-64769500D01*
X127635500Y-57785500D01*
X167004500Y-57785500D01*
X167004500Y-64769500D01*
M02*
