G04 #@! TF.FileFunction,Soldermask,Top*
%FSLAX46Y46*%
G04 Gerber Fmt 4.6, Leading zero omitted, Abs format (unit mm)*
G04 Created by KiCad (PCBNEW 4.0.0-rc1-stable) date 20-08-2016 17:56:14*
%MOMM*%
G01*
G04 APERTURE LIST*
%ADD10C,0.100000*%
%ADD11R,2.178000X8.020000*%
%ADD12R,1.150000X1.200000*%
%ADD13R,1.200000X1.150000*%
%ADD14R,0.800000X1.500000*%
%ADD15R,1.670000X0.679400*%
%ADD16C,1.000000*%
G04 APERTURE END LIST*
D10*
D11*
X129540000Y-93980000D03*
X132080000Y-93980000D03*
X134620000Y-93980000D03*
X137160000Y-93980000D03*
X142240000Y-93980000D03*
X144780000Y-93980000D03*
X147320000Y-93980000D03*
X149860000Y-93980000D03*
X152400000Y-93980000D03*
X154940000Y-93980000D03*
X157480000Y-93980000D03*
X160020000Y-93980000D03*
X162560000Y-93980000D03*
X165100000Y-93980000D03*
D12*
X154450000Y-79950000D03*
X154450000Y-81450000D03*
D13*
X140075000Y-68175000D03*
X141575000Y-68175000D03*
D14*
X143745000Y-82606000D03*
X144395000Y-82606000D03*
X145045000Y-82606000D03*
X145695000Y-82606000D03*
X146345000Y-82606000D03*
X146995000Y-82606000D03*
X147645000Y-82606000D03*
X148295000Y-82606000D03*
X148945000Y-82606000D03*
X149595000Y-82606000D03*
X150245000Y-82606000D03*
X150895000Y-82606000D03*
X150895000Y-76906000D03*
X150245000Y-76906000D03*
X149595000Y-76906000D03*
X148945000Y-76906000D03*
X148295000Y-76906000D03*
X147645000Y-76906000D03*
X146995000Y-76906000D03*
X146345000Y-76906000D03*
X145695000Y-76906000D03*
X145045000Y-76906000D03*
X144395000Y-76906000D03*
X143745000Y-76906000D03*
D15*
X137668000Y-59182000D03*
X137668000Y-59690000D03*
X137668000Y-60172600D03*
X137668000Y-60680600D03*
X137668000Y-61188600D03*
X137668000Y-61671200D03*
X137668000Y-62179200D03*
X137668000Y-62687200D03*
X137668000Y-63169800D03*
X137668000Y-63677800D03*
X137668000Y-64185800D03*
X137668000Y-64693800D03*
X137668000Y-65176400D03*
X137668000Y-65684400D03*
X137668000Y-66192400D03*
X137668000Y-66675000D03*
X157099000Y-66675000D03*
X157099000Y-66167000D03*
X157099000Y-65684400D03*
X157099000Y-65176400D03*
X157099000Y-64668400D03*
X157099000Y-64185800D03*
X157099000Y-63677800D03*
X157099000Y-63169800D03*
X157099000Y-62687200D03*
X157099000Y-62179200D03*
X157099000Y-61671200D03*
X157099000Y-61163200D03*
X157099000Y-60680600D03*
X157099000Y-60172600D03*
X157099000Y-59664600D03*
X157099000Y-59182000D03*
D16*
X132050000Y-75700000D03*
X132080000Y-81788000D03*
X135960000Y-80750000D03*
X135330000Y-75730000D03*
X136280000Y-75720000D03*
X136820000Y-80120000D03*
X137690000Y-79470000D03*
X137410000Y-75710000D03*
X138490000Y-78810000D03*
X138500000Y-75680000D03*
X152730000Y-68920000D03*
X152710000Y-70790000D03*
X153370000Y-70160000D03*
X153380000Y-67380000D03*
X154000000Y-69550000D03*
X154010000Y-65820000D03*
X130746500Y-78232000D03*
X130810000Y-83375500D03*
X165100000Y-84836000D03*
X161671000Y-84836000D03*
X161671000Y-80518000D03*
X165100000Y-80518000D03*
X143150000Y-73650000D03*
X156400000Y-72000000D03*
X142850000Y-68200000D03*
X165100000Y-82600000D03*
X161700000Y-82600000D03*
X161700000Y-63860000D03*
X161680000Y-62870000D03*
X161600000Y-61640000D03*
X160900000Y-60990000D03*
X160110000Y-60530000D03*
X150400000Y-84100000D03*
X152600000Y-79925000D03*
X154900000Y-60000000D03*
X154650000Y-68900000D03*
X143700000Y-85600000D03*
X134550000Y-59700000D03*
X135200000Y-85650000D03*
X141300000Y-85600000D03*
X147574000Y-81026000D03*
X150900000Y-64300000D03*
X148700000Y-62100000D03*
X141986000Y-78740000D03*
X133850000Y-60700000D03*
X133350000Y-88646000D03*
X161671000Y-77216000D03*
X157099000Y-73660000D03*
X142319000Y-76906000D03*
X155450000Y-78725000D03*
X140100000Y-69225000D03*
X138325000Y-69200000D03*
X135900000Y-62700000D03*
X129560000Y-76950000D03*
X147325000Y-78175000D03*
X149606000Y-74803000D03*
X150241000Y-75628500D03*
M02*
