G04 #@! TF.FileFunction,Legend,Top*
%FSLAX46Y46*%
G04 Gerber Fmt 4.6, Leading zero omitted, Abs format (unit mm)*
G04 Created by KiCad (PCBNEW 4.0.0-rc1-stable) date 20-08-2016 17:56:14*
%MOMM*%
G01*
G04 APERTURE LIST*
%ADD10C,0.100000*%
%ADD11C,0.000254*%
%ADD12C,0.150000*%
G04 APERTURE END LIST*
D10*
D11*
X127000000Y-97790000D02*
X138938000Y-97790000D01*
X138938000Y-97790000D02*
X138938000Y-89916000D01*
X138938000Y-89916000D02*
X140462000Y-89916000D01*
X140462000Y-89916000D02*
X140462000Y-97790000D01*
X140462000Y-97790000D02*
X167640000Y-97790000D01*
X167640000Y-97790000D02*
X167640000Y-87630000D01*
X127000000Y-97790000D02*
X127000000Y-87630000D01*
D12*
X155050000Y-80350000D02*
X155050000Y-81050000D01*
X153850000Y-81050000D02*
X153850000Y-80350000D01*
X140475000Y-67575000D02*
X141175000Y-67575000D01*
X141175000Y-68775000D02*
X140475000Y-68775000D01*
X143295000Y-82081000D02*
X143320000Y-82081000D01*
X143295000Y-77431000D02*
X143320000Y-77431000D01*
X151345000Y-77431000D02*
X151320000Y-77431000D01*
X151345000Y-82081000D02*
X151320000Y-82081000D01*
X143295000Y-82081000D02*
X143295000Y-77431000D01*
X151345000Y-82081000D02*
X151345000Y-77431000D01*
X143320000Y-82081000D02*
X143320000Y-83156000D01*
X139954000Y-59690000D02*
G75*
G03X139954000Y-59690000I-508000J0D01*
G01*
X156210000Y-58928000D02*
X156210000Y-66929000D01*
X156210000Y-66929000D02*
X138557000Y-66929000D01*
X138557000Y-66929000D02*
X138557000Y-58928000D01*
X138557000Y-58928000D02*
X156210000Y-58928000D01*
X140057143Y-95067285D02*
X140104762Y-95114904D01*
X140152381Y-95257761D01*
X140152381Y-95352999D01*
X140104762Y-95495857D01*
X140009524Y-95591095D01*
X139914286Y-95638714D01*
X139723810Y-95686333D01*
X139580952Y-95686333D01*
X139390476Y-95638714D01*
X139295238Y-95591095D01*
X139200000Y-95495857D01*
X139152381Y-95352999D01*
X139152381Y-95257761D01*
X139200000Y-95114904D01*
X139247619Y-95067285D01*
X139152381Y-94448238D02*
X139152381Y-94257761D01*
X139200000Y-94162523D01*
X139295238Y-94067285D01*
X139485714Y-94019666D01*
X139819048Y-94019666D01*
X140009524Y-94067285D01*
X140104762Y-94162523D01*
X140152381Y-94257761D01*
X140152381Y-94448238D01*
X140104762Y-94543476D01*
X140009524Y-94638714D01*
X139819048Y-94686333D01*
X139485714Y-94686333D01*
X139295238Y-94638714D01*
X139200000Y-94543476D01*
X139152381Y-94448238D01*
X140152381Y-93591095D02*
X139152381Y-93591095D01*
X140152381Y-93019666D01*
X139152381Y-93019666D01*
X140152381Y-92019666D02*
X140152381Y-92591095D01*
X140152381Y-92305381D02*
X139152381Y-92305381D01*
X139295238Y-92400619D01*
X139390476Y-92495857D01*
X139438095Y-92591095D01*
X164552381Y-89376191D02*
X164552381Y-89280952D01*
X164600000Y-89185714D01*
X164647619Y-89138095D01*
X164742857Y-89090476D01*
X164933333Y-89042857D01*
X165171429Y-89042857D01*
X165361905Y-89090476D01*
X165457143Y-89138095D01*
X165504762Y-89185714D01*
X165552381Y-89280952D01*
X165552381Y-89376191D01*
X165504762Y-89471429D01*
X165457143Y-89519048D01*
X165361905Y-89566667D01*
X165171429Y-89614286D01*
X164933333Y-89614286D01*
X164742857Y-89566667D01*
X164647619Y-89519048D01*
X164600000Y-89471429D01*
X164552381Y-89376191D01*
X164552381Y-88757143D02*
X165552381Y-88423810D01*
X164552381Y-88090476D01*
X163012381Y-89638095D02*
X162012381Y-89638095D01*
X162012381Y-89400000D01*
X162060000Y-89257142D01*
X162155238Y-89161904D01*
X162250476Y-89114285D01*
X162440952Y-89066666D01*
X162583810Y-89066666D01*
X162774286Y-89114285D01*
X162869524Y-89161904D01*
X162964762Y-89257142D01*
X163012381Y-89400000D01*
X163012381Y-89638095D01*
X162107619Y-88685714D02*
X162060000Y-88638095D01*
X162012381Y-88542857D01*
X162012381Y-88304761D01*
X162060000Y-88209523D01*
X162107619Y-88161904D01*
X162202857Y-88114285D01*
X162298095Y-88114285D01*
X162440952Y-88161904D01*
X163012381Y-88733333D01*
X163012381Y-88114285D01*
X160472381Y-89638095D02*
X159472381Y-89638095D01*
X159472381Y-89400000D01*
X159520000Y-89257142D01*
X159615238Y-89161904D01*
X159710476Y-89114285D01*
X159900952Y-89066666D01*
X160043810Y-89066666D01*
X160234286Y-89114285D01*
X160329524Y-89161904D01*
X160424762Y-89257142D01*
X160472381Y-89400000D01*
X160472381Y-89638095D01*
X160472381Y-88114285D02*
X160472381Y-88685714D01*
X160472381Y-88400000D02*
X159472381Y-88400000D01*
X159615238Y-88495238D01*
X159710476Y-88590476D01*
X159758095Y-88685714D01*
X157932381Y-89638095D02*
X156932381Y-89638095D01*
X156932381Y-89400000D01*
X156980000Y-89257142D01*
X157075238Y-89161904D01*
X157170476Y-89114285D01*
X157360952Y-89066666D01*
X157503810Y-89066666D01*
X157694286Y-89114285D01*
X157789524Y-89161904D01*
X157884762Y-89257142D01*
X157932381Y-89400000D01*
X157932381Y-89638095D01*
X156932381Y-88447619D02*
X156932381Y-88352380D01*
X156980000Y-88257142D01*
X157027619Y-88209523D01*
X157122857Y-88161904D01*
X157313333Y-88114285D01*
X157551429Y-88114285D01*
X157741905Y-88161904D01*
X157837143Y-88209523D01*
X157884762Y-88257142D01*
X157932381Y-88352380D01*
X157932381Y-88447619D01*
X157884762Y-88542857D01*
X157837143Y-88590476D01*
X157741905Y-88638095D01*
X157551429Y-88685714D01*
X157313333Y-88685714D01*
X157122857Y-88638095D01*
X157027619Y-88590476D01*
X156980000Y-88542857D01*
X156932381Y-88447619D01*
X155106667Y-89614286D02*
X155106667Y-89138095D01*
X155392381Y-89709524D02*
X154392381Y-89376191D01*
X155392381Y-89042857D01*
X154392381Y-88519048D02*
X154392381Y-88423809D01*
X154440000Y-88328571D01*
X154487619Y-88280952D01*
X154582857Y-88233333D01*
X154773333Y-88185714D01*
X155011429Y-88185714D01*
X155201905Y-88233333D01*
X155297143Y-88280952D01*
X155344762Y-88328571D01*
X155392381Y-88423809D01*
X155392381Y-88519048D01*
X155344762Y-88614286D01*
X155297143Y-88661905D01*
X155201905Y-88709524D01*
X155011429Y-88757143D01*
X154773333Y-88757143D01*
X154582857Y-88709524D01*
X154487619Y-88661905D01*
X154440000Y-88614286D01*
X154392381Y-88519048D01*
X152566667Y-89614286D02*
X152566667Y-89138095D01*
X152852381Y-89709524D02*
X151852381Y-89376191D01*
X152852381Y-89042857D01*
X152852381Y-88185714D02*
X152852381Y-88757143D01*
X152852381Y-88471429D02*
X151852381Y-88471429D01*
X151995238Y-88566667D01*
X152090476Y-88661905D01*
X152138095Y-88757143D01*
X150026667Y-89614286D02*
X150026667Y-89138095D01*
X150312381Y-89709524D02*
X149312381Y-89376191D01*
X150312381Y-89042857D01*
X149407619Y-88757143D02*
X149360000Y-88709524D01*
X149312381Y-88614286D01*
X149312381Y-88376190D01*
X149360000Y-88280952D01*
X149407619Y-88233333D01*
X149502857Y-88185714D01*
X149598095Y-88185714D01*
X149740952Y-88233333D01*
X150312381Y-88804762D01*
X150312381Y-88185714D01*
X147486667Y-89614286D02*
X147486667Y-89138095D01*
X147772381Y-89709524D02*
X146772381Y-89376191D01*
X147772381Y-89042857D01*
X146772381Y-88804762D02*
X146772381Y-88185714D01*
X147153333Y-88519048D01*
X147153333Y-88376190D01*
X147200952Y-88280952D01*
X147248571Y-88233333D01*
X147343810Y-88185714D01*
X147581905Y-88185714D01*
X147677143Y-88233333D01*
X147724762Y-88280952D01*
X147772381Y-88376190D01*
X147772381Y-88661905D01*
X147724762Y-88757143D01*
X147677143Y-88804762D01*
X144946667Y-89614286D02*
X144946667Y-89138095D01*
X145232381Y-89709524D02*
X144232381Y-89376191D01*
X145232381Y-89042857D01*
X144565714Y-88280952D02*
X145232381Y-88280952D01*
X144184762Y-88519048D02*
X144899048Y-88757143D01*
X144899048Y-88138095D01*
X142406667Y-89614286D02*
X142406667Y-89138095D01*
X142692381Y-89709524D02*
X141692381Y-89376191D01*
X142692381Y-89042857D01*
X141692381Y-88233333D02*
X141692381Y-88709524D01*
X142168571Y-88757143D01*
X142120952Y-88709524D01*
X142073333Y-88614286D01*
X142073333Y-88376190D01*
X142120952Y-88280952D01*
X142168571Y-88233333D01*
X142263810Y-88185714D01*
X142501905Y-88185714D01*
X142597143Y-88233333D01*
X142644762Y-88280952D01*
X142692381Y-88376190D01*
X142692381Y-88614286D01*
X142644762Y-88709524D01*
X142597143Y-88757143D01*
X137326667Y-89614286D02*
X137326667Y-89138095D01*
X137612381Y-89709524D02*
X136612381Y-89376191D01*
X137612381Y-89042857D01*
X136612381Y-88280952D02*
X136612381Y-88471429D01*
X136660000Y-88566667D01*
X136707619Y-88614286D01*
X136850476Y-88709524D01*
X137040952Y-88757143D01*
X137421905Y-88757143D01*
X137517143Y-88709524D01*
X137564762Y-88661905D01*
X137612381Y-88566667D01*
X137612381Y-88376190D01*
X137564762Y-88280952D01*
X137517143Y-88233333D01*
X137421905Y-88185714D01*
X137183810Y-88185714D01*
X137088571Y-88233333D01*
X137040952Y-88280952D01*
X136993333Y-88376190D01*
X136993333Y-88566667D01*
X137040952Y-88661905D01*
X137088571Y-88709524D01*
X137183810Y-88757143D01*
X134786667Y-89614286D02*
X134786667Y-89138095D01*
X135072381Y-89709524D02*
X134072381Y-89376191D01*
X135072381Y-89042857D01*
X134072381Y-88804762D02*
X134072381Y-88138095D01*
X135072381Y-88566667D01*
X132246667Y-89582476D02*
X132246667Y-89106285D01*
X132532381Y-89677714D02*
X131532381Y-89344381D01*
X132532381Y-89011047D01*
X132532381Y-88153904D02*
X132532381Y-88725333D01*
X132532381Y-88439619D02*
X131532381Y-88439619D01*
X131675238Y-88534857D01*
X131770476Y-88630095D01*
X131818095Y-88725333D01*
X131627619Y-87772952D02*
X131580000Y-87725333D01*
X131532381Y-87630095D01*
X131532381Y-87391999D01*
X131580000Y-87296761D01*
X131627619Y-87249142D01*
X131722857Y-87201523D01*
X131818095Y-87201523D01*
X131960952Y-87249142D01*
X132532381Y-87820571D01*
X132532381Y-87201523D01*
X129992381Y-89137904D02*
X129516190Y-89471238D01*
X129992381Y-89709333D02*
X128992381Y-89709333D01*
X128992381Y-89328380D01*
X129040000Y-89233142D01*
X129087619Y-89185523D01*
X129182857Y-89137904D01*
X129325714Y-89137904D01*
X129420952Y-89185523D01*
X129468571Y-89233142D01*
X129516190Y-89328380D01*
X129516190Y-89709333D01*
X128992381Y-88518857D02*
X128992381Y-88328380D01*
X129040000Y-88233142D01*
X129135238Y-88137904D01*
X129325714Y-88090285D01*
X129659048Y-88090285D01*
X129849524Y-88137904D01*
X129944762Y-88233142D01*
X129992381Y-88328380D01*
X129992381Y-88518857D01*
X129944762Y-88614095D01*
X129849524Y-88709333D01*
X129659048Y-88756952D01*
X129325714Y-88756952D01*
X129135238Y-88709333D01*
X129040000Y-88614095D01*
X128992381Y-88518857D01*
X129992381Y-87661714D02*
X128992381Y-87661714D01*
X129706667Y-87328380D01*
X128992381Y-86995047D01*
X129992381Y-86995047D01*
X129897143Y-85947428D02*
X129944762Y-85995047D01*
X129992381Y-86137904D01*
X129992381Y-86233142D01*
X129944762Y-86376000D01*
X129849524Y-86471238D01*
X129754286Y-86518857D01*
X129563810Y-86566476D01*
X129420952Y-86566476D01*
X129230476Y-86518857D01*
X129135238Y-86471238D01*
X129040000Y-86376000D01*
X128992381Y-86233142D01*
X128992381Y-86137904D01*
X129040000Y-85995047D01*
X129087619Y-85947428D01*
X129944762Y-85566476D02*
X129992381Y-85423619D01*
X129992381Y-85185523D01*
X129944762Y-85090285D01*
X129897143Y-85042666D01*
X129801905Y-84995047D01*
X129706667Y-84995047D01*
X129611429Y-85042666D01*
X129563810Y-85090285D01*
X129516190Y-85185523D01*
X129468571Y-85376000D01*
X129420952Y-85471238D01*
X129373333Y-85518857D01*
X129278095Y-85566476D01*
X129182857Y-85566476D01*
X129087619Y-85518857D01*
X129040000Y-85471238D01*
X128992381Y-85376000D01*
X128992381Y-85137904D01*
X129040000Y-84995047D01*
X128820000Y-89947428D02*
X128820000Y-84804571D01*
X156707143Y-80866666D02*
X156754762Y-80914285D01*
X156802381Y-81057142D01*
X156802381Y-81152380D01*
X156754762Y-81295238D01*
X156659524Y-81390476D01*
X156564286Y-81438095D01*
X156373810Y-81485714D01*
X156230952Y-81485714D01*
X156040476Y-81438095D01*
X155945238Y-81390476D01*
X155850000Y-81295238D01*
X155802381Y-81152380D01*
X155802381Y-81057142D01*
X155850000Y-80914285D01*
X155897619Y-80866666D01*
X156802381Y-79914285D02*
X156802381Y-80485714D01*
X156802381Y-80200000D02*
X155802381Y-80200000D01*
X155945238Y-80295238D01*
X156040476Y-80390476D01*
X156088095Y-80485714D01*
X141311334Y-70080143D02*
X141263715Y-70127762D01*
X141120858Y-70175381D01*
X141025620Y-70175381D01*
X140882762Y-70127762D01*
X140787524Y-70032524D01*
X140739905Y-69937286D01*
X140692286Y-69746810D01*
X140692286Y-69603952D01*
X140739905Y-69413476D01*
X140787524Y-69318238D01*
X140882762Y-69223000D01*
X141025620Y-69175381D01*
X141120858Y-69175381D01*
X141263715Y-69223000D01*
X141311334Y-69270619D01*
X141692286Y-69270619D02*
X141739905Y-69223000D01*
X141835143Y-69175381D01*
X142073239Y-69175381D01*
X142168477Y-69223000D01*
X142216096Y-69270619D01*
X142263715Y-69365857D01*
X142263715Y-69461095D01*
X142216096Y-69603952D01*
X141644667Y-70175381D01*
X142263715Y-70175381D01*
X140422381Y-82803905D02*
X141231905Y-82803905D01*
X141327143Y-82756286D01*
X141374762Y-82708667D01*
X141422381Y-82613429D01*
X141422381Y-82422952D01*
X141374762Y-82327714D01*
X141327143Y-82280095D01*
X141231905Y-82232476D01*
X140422381Y-82232476D01*
X141422381Y-81232476D02*
X141422381Y-81803905D01*
X141422381Y-81518191D02*
X140422381Y-81518191D01*
X140565238Y-81613429D01*
X140660476Y-81708667D01*
X140708095Y-81803905D01*
X138811095Y-57745381D02*
X138811095Y-58554905D01*
X138858714Y-58650143D01*
X138906333Y-58697762D01*
X139001571Y-58745381D01*
X139192048Y-58745381D01*
X139287286Y-58697762D01*
X139334905Y-58650143D01*
X139382524Y-58554905D01*
X139382524Y-57745381D01*
X139811095Y-57840619D02*
X139858714Y-57793000D01*
X139953952Y-57745381D01*
X140192048Y-57745381D01*
X140287286Y-57793000D01*
X140334905Y-57840619D01*
X140382524Y-57935857D01*
X140382524Y-58031095D01*
X140334905Y-58173952D01*
X139763476Y-58745381D01*
X140382524Y-58745381D01*
M02*
